<svg xmlns="http://www.w3.org/2000/svg" xmlns:xlink="http://www.w3.org/1999/xlink" viewBox="0 0 738.49 545.86"><defs><style>.cls-1{fill:none;}.cls-2{fill:#ebffff;}.cls-3{fill:#faf1ed;}.cls-4{fill:#45a19e;}.cls-5{fill:#63c2a4;}.cls-6{fill:#63bcb8;}.cls-7{fill:#febf3e;}.cls-8{fill:#f4d854;}.cls-9{fill:#e59323;}.cls-10{fill:#63c3a7;}.cls-11{fill:#ffa238;}.cls-12{fill:#7e4d49;}.cls-13{fill:#9c5537;}.cls-14{fill:#f5e1df;}.cls-15{fill:#cf8464;}.cls-16{fill:#664138;}.cls-17{fill:#f5e6e0;}.cls-18{fill:#8e6e63;}.cls-19{fill:#e1aa91;}.cls-20{clip-path:url(#clip-path);}.cls-21{fill:url(#Áåçûìÿííûé_ãðàäèåíò_22);}.cls-22{clip-path:url(#clip-path-2);}.cls-23{fill:#ff7903;}.cls-24{fill:#fed5a7;}.cls-25{clip-path:url(#clip-path-3);}.cls-26{fill:#18898d;}.cls-27{fill:#c8e6ee;}.cls-28{opacity:0.1;}.cls-29{fill:#0d7a7f;}.cls-30{clip-path:url(#clip-path-4);}.cls-31{fill:#4e75da;}.cls-32{fill:#83a3fa;}.cls-33{fill:#b9ddff;}.cls-34{fill:#b260e9;}.cls-35{fill:#5e45e1;}.cls-36{fill:#fad553;}.cls-37{fill:#dcaa9b;}.cls-38{fill:#e1b6af;}.cls-39{fill:#a83b24;}.cls-40{fill:#6a1300;}.cls-41{fill:#d7eff1;}.cls-42{fill:#f0b7b0;}.cls-43{fill:#277395;}.cls-44{fill:#349ac6;}.cls-45{fill:#b95644;}.cls-46{fill:#3d3f39;}.cls-47{fill:#164059;}.cls-48{fill:#243f74;}.cls-49{fill:#6a9bbf;}.cls-50{fill:#4a9cc2;}.cls-51{fill:#57a9de;}.cls-52{fill:#d1dae1;}.cls-53{fill:#d1f5ff;}</style><clipPath id="clip-path"><path class="cls-1" d="M548.51,332.25c0-15.6-14.4-28.37-29.91-28.37H419.48c-15.5,0-29.9,12.77-29.9,28.37,0,.24,0,.49,0,.74s0,.49,0,.73c0,15.6,14.4,28.37,29.9,28.37H518.6c15.51,0,29.91-12.77,29.91-28.37,0-.24,0-.49,0-.73S548.51,332.49,548.51,332.25Z"/></clipPath><linearGradient id="Áåçûìÿííûé_ãðàäèåíò_22" x1="539.5" y1="346.12" x2="596.25" y2="346.12" gradientTransform="translate(-64.63)" gradientUnits="userSpaceOnUse"><stop offset="0" stop-color="#febf3e"/><stop offset="0.68" stop-color="#fcb63c"/><stop offset="1" stop-color="#fbb03b"/></linearGradient><clipPath id="clip-path-2"><path class="cls-1" d="M353.93,333.31V304a9.9,9.9,0,0,0-10.16-9.62H206.18A9.91,9.91,0,0,0,196,304v29.34Z"/></clipPath><clipPath id="clip-path-3"><rect class="cls-1" x="186.09" y="117.26" width="372.3" height="166.88"/></clipPath><clipPath id="clip-path-4"><path class="cls-1" d="M353.17,391.35v-39.8c0-.74-1.43-1.35-3.2-1.35H199.62c-1.76,0-3.19.61-3.19,1.35v39.8Z"/></clipPath></defs><title>Retirement</title><g id="Layer_2" data-name="Layer 2"><g id="Ñëîé_1" data-name="Ñëîé 1"><path class="cls-2" d="M74.35,357.53c-9-32.74-35.95-61-34.19-94.91.41-8,2.48-15.94,2.67-24C43.29,218.39,32,200,25.45,180.87a127.94,127.94,0,0,1-2.66-73.38c4-15.32,11.33-30.35,23.68-40.25,9.63-7.72,21.72-11.84,33.88-14a122.68,122.68,0,0,1,52.28,2.22c19.63,5.18,39.65,15.33,59.2,9.84C204.21,61.86,214,52.62,224.35,45c28.09-20.53,65.33-30,98.73-20.25,12.78,3.75,24.77,10.16,37.85,12.64C416.05,47.9,468.17-12.81,522.16,2.49c19.89,5.63,35.82,21,55.52,27.23,24.34,7.76,51.11.77,76.12,6,43.26,9,71.9,53.9,75.21,98s-13.39,87.09-32.62,126.87c-10.62,22-22.27,44-25.9,68.15s2.43,51.37,21.71,66.33c-27.28,6.2-55.28,8.44-83.17,10.59Q451,417.77,292.67,427.09c-39.12,2.3-79,4.4-116.9-5.73-13-3.47-26.23-8.06-39.8-8.44-9.92-.28-21,5-30.72,2.84C80.81,410.26,79.59,376.48,74.35,357.53Z"/><path class="cls-3" d="M4.8,456.74c-2.09,2.13-4.21,4.48-4.69,7.34-1.08,6.43,6.22,11.14,12.71,13.31,27.69,9.24,59.9,4.87,85.35,18.72,4.44,2.41,9.07,6.48,8,11.21-.59,2.61-2.81,4.58-4.13,6.94-5.17,9.22,4.65,19.77,14.61,24.26,36.38,16.4,78.84.62,119-2.28,46-3.32,95.71,10.24,136.53-10.13,7.7-3.84,14.79-8.8,22.81-12,25.32-10.12,54-1.17,81,3.9a277.65,277.65,0,0,0,94.93,1.26c11.25-1.81,22.89-4.56,31.36-11.78,7.64-6.52,11.78-15.9,18.29-23.44,28.08-32.52,90.93-23,115-58.26,1.58-2.31,3-4.9,2.9-7.65a12,12,0,0,0-2.24-6.07c-7.53-11.58-22.88-15.8-36.83-19.09-21.5-5.07-43.08-10.15-65.11-12.39-22.61-2.31-45.44-1.6-68.17-.88-143,4.49-286.06,9-428.66,20C85,403.69,41.23,419.65,4.8,456.74Z"/><path class="cls-4" d="M368,344.3,364,342c.75-1.28,93.91-175.7,119.79-277.86l4.22-.26C462,166.63,368.78,343,368,344.3Z"/><path class="cls-4" d="M502.1,52.46c-5.33,16.94-20.27,27.33-20.27,27.33s-6.3-17.08-1-34,20.27-27.33,20.27-27.33S507.43,35.52,502.1,52.46Z"/><path class="cls-5" d="M472.47,81.61c4.79,14.68-.53,29.57-.53,29.57s-13.07-8.89-17.86-23.57.53-29.56.53-29.56S467.68,66.94,472.47,81.61Z"/><path class="cls-4" d="M486.88,92.91c-12.32,9.29-16.5,24.54-16.5,24.54s15.82.2,28.14-9.08S515,83.83,515,83.83,499.21,83.63,486.88,92.91Z"/><path class="cls-4" d="M410,209.35c7.76,18.79,2.29,38.88,2.29,38.88s-18.07-10.36-25.84-29.14-2.28-38.88-2.28-38.88S402.27,190.57,410,209.35Z"/><path class="cls-5" d="M444.53,225.74c-19.89,4.21-33.37,20.08-33.37,20.08s18.76,9.05,38.65,4.84,33.36-20.08,33.36-20.08S464.41,221.53,444.53,225.74Z"/><path class="cls-5" d="M481.1,138.58c-16.82,5.23-27.18,20-27.18,20s16.91,6.3,33.73,1.07,27.18-20,27.18-20S497.92,133.35,481.1,138.58Z"/><path class="cls-4" d="M451.84,117.8c7.51,15.93,3.62,33.55,3.62,33.55s-16.07-8.2-23.59-24.13-3.63-33.56-3.63-33.56S444.32,101.87,451.84,117.8Z"/><path class="cls-6" d="M415.23,273.89c-16.82,5.23-27.18,20-27.18,20S405,300.2,421.79,295,449,275,449,275,432.05,268.66,415.23,273.89Z"/><path class="cls-5" d="M385.73,261c7.52,15.93,3.63,33.55,3.63,33.55s-16.08-8.2-23.6-24.13-3.62-33.56-3.62-33.56S378.22,245.09,385.73,261Z"/><path class="cls-6" d="M464.93,177c-16.83,5.15-27.23,19.88-27.23,19.88s16.87,6.37,33.7,1.21,27.23-19.89,27.23-19.89S481.76,171.83,464.93,177Z"/><path class="cls-5" d="M433.1,162c7.51,15.92,3.62,33.53,3.62,33.53s-16.06-8.19-23.57-24.11-3.62-33.53-3.62-33.53S425.59,146.12,433.1,162Z"/><path class="cls-7" d="M439.29,217.86a17,17,0,1,1,23.9,2A17,17,0,0,1,439.29,217.86Z"/><path class="cls-7" d="M439.29,217.86a17,17,0,1,1,23.9,2A17,17,0,0,1,439.29,217.86Z"/><circle class="cls-7" cx="452.19" cy="206.86" r="19.38" transform="translate(186.89 627.43) rotate(-82.34)"/><path class="cls-7" d="M439.29,217.86a17,17,0,1,1,23.9,2A17,17,0,0,1,439.29,217.86Z"/><path class="cls-8" d="M440.45,218a17,17,0,0,1,14.28-27.86,17,17,0,1,0-3.85,33.66A17,17,0,0,1,440.45,218Z"/><path class="cls-9" d="M465.16,195.93a16.87,16.87,0,0,0-10.35-5.79,16.95,16.95,0,0,1-6.58,33.22,16.95,16.95,0,0,0,16.93-27.43Z"/><path class="cls-7" d="M443.13,153.54a17.93,17.93,0,1,1,17.41-18.43A17.95,17.95,0,0,1,443.13,153.54Z"/><path class="cls-7" d="M443.13,153.54a17.93,17.93,0,1,1,17.41-18.43A17.95,17.95,0,0,1,443.13,153.54Z"/><path class="cls-7" d="M463.05,135A20.49,20.49,0,1,1,442,115.14,20.49,20.49,0,0,1,463.05,135Z"/><path class="cls-7" d="M443.13,153.54a17.93,17.93,0,1,1,17.41-18.43A17.95,17.95,0,0,1,443.13,153.54Z"/><path class="cls-8" d="M444,152.67a17.93,17.93,0,0,1-13.57-30.19,17.92,17.92,0,1,0,25.25,25.41A17.9,17.9,0,0,1,444,152.67Z"/><path class="cls-9" d="M442.12,117.7a17.84,17.84,0,0,0-11.62,4.73,17.92,17.92,0,0,1,23.08,27.37,17.92,17.92,0,0,0-11.46-32.1Z"/><path class="cls-7" d="M481.12,80.23A19.46,19.46,0,1,1,506.87,90,19.49,19.49,0,0,1,481.12,80.23Z"/><path class="cls-7" d="M481.12,80.23A19.46,19.46,0,1,1,506.87,90,19.49,19.49,0,0,1,481.12,80.23Z"/><circle class="cls-7" cx="498.84" cy="72.18" r="22.24" transform="translate(-1.43 10.69) rotate(-1.23)"/><path class="cls-7" d="M481.12,80.23A19.46,19.46,0,1,1,506.87,90,19.49,19.49,0,0,1,481.12,80.23Z"/><path class="cls-8" d="M482.37,80.75a19.45,19.45,0,0,1,24.56-26.22A19.45,19.45,0,1,0,492,90.44,19.34,19.34,0,0,1,482.37,80.75Z"/><path class="cls-9" d="M516.6,64.22A19.34,19.34,0,0,0,507,54.57a19.45,19.45,0,0,1-17.77,34.56A19.45,19.45,0,0,0,516.6,64.22Z"/><path class="cls-4" d="M558.21,358.08,551.7,355c.67-1.39,66.61-140,84.38-247.21l7.12,1.18C625.27,217.2,558.88,356.68,558.21,358.08Z"/><path class="cls-4" d="M657.83,83.35c-4,17.9-18.51,29.89-18.51,29.89s-8-17-3.94-34.94,18.51-29.89,18.51-29.89S661.85,65.44,657.83,83.35Z"/><path class="cls-4" d="M629.84,115.93c6.2,14.69,2,30.49,2,30.49s-14.23-8-20.43-22.72-2-30.48-2-30.48S623.64,101.24,629.84,115.93Z"/><path class="cls-10" d="M646.74,119.73c-11.89,10.63-14.86,26.69-14.86,26.69s16.3-1.16,28.18-11.79,14.87-26.7,14.87-26.7S658.63,109.1,646.74,119.73Z"/><path class="cls-10" d="M575.15,258.91c9.63,18.67,5.73,39.83,5.73,39.83s-19.5-9.1-29.13-27.77S546,231.14,546,231.14,565.53,240.24,575.15,258.91Z"/><path class="cls-4" d="M618.13,265.57c-20.1,6.06-32.61,23.57-32.61,23.57s20.1,7.7,40.21,1.64,32.61-23.57,32.61-23.57S638.24,259.52,618.13,265.57Z"/><path class="cls-4" d="M645.29,166.7c-16.87,6.84-26.25,23-26.25,23s18,5,34.82-1.82,26.25-23,26.25-23S662.15,159.86,645.29,166.7Z"/><path class="cls-10" d="M611.61,161.05c9.12,15.75,6.64,34.23,6.64,34.23s-17.26-7.05-26.38-22.8-6.64-34.24-6.64-34.24S602.49,145.3,611.61,161.05Z"/><path class="cls-10" d="M587.56,318.86c-16.86,6.85-26.25,23-26.25,23s18,5,34.83-1.82,26.25-22.95,26.25-22.95S604.43,312,587.56,318.86Z"/><path class="cls-4" d="M554,307.14c9.12,15.75,6.64,34.24,6.64,34.24s-17.27-7.06-26.38-22.81-6.64-34.23-6.64-34.23S544.89,291.39,554,307.14Z"/><path class="cls-10" d="M630.34,214.78C613.46,221.55,604,237.62,604,237.62s17.93,5.09,34.81-1.68,26.31-22.83,26.31-22.83S647.22,208,630.34,214.78Z"/><path class="cls-4" d="M596.27,202.15c9.11,15.73,6.64,34.2,6.64,34.2s-17.25-7-26.37-22.78-6.63-34.21-6.63-34.21S587.16,186.41,596.27,202.15Z"/><path class="cls-7" d="M606.45,274.36a26.23,26.23,0,1,1,36.88-4A26.25,26.25,0,0,1,606.45,274.36Z"/><path class="cls-7" d="M606.45,274.36a26.23,26.23,0,1,1,36.88-4A26.25,26.25,0,0,1,606.45,274.36Z"/><circle class="cls-7" cx="622.84" cy="253.88" r="29.97" transform="translate(19.22 550.58) rotate(-48.35)"/><path class="cls-7" d="M606.45,274.36a26.23,26.23,0,1,1,36.88-4A26.25,26.25,0,0,1,606.45,274.36Z"/><path class="cls-8" d="M608.26,274.23a26.22,26.22,0,0,1,13.55-46.49,26.22,26.22,0,1,0,4,52.25A26.18,26.18,0,0,1,608.26,274.23Z"/><path class="cls-9" d="M639.35,233.5a26.14,26.14,0,0,0-17.43-5.76,26.21,26.21,0,0,1-.28,52.37,26.21,26.21,0,0,0,17.71-46.61Z"/><path class="cls-7" d="M610.88,154.26a25.89,25.89,0,1,1,28.73-22.69A25.92,25.92,0,0,1,610.88,154.26Z"/><path class="cls-7" d="M610.88,154.26a25.89,25.89,0,1,1,28.73-22.69A25.92,25.92,0,0,1,610.88,154.26Z"/><circle class="cls-7" cx="613.83" cy="128.54" r="29.58" transform="translate(74.84 449.16) rotate(-42.57)"/><path class="cls-7" d="M610.88,154.26a25.89,25.89,0,1,1,28.73-22.69A25.92,25.92,0,0,1,610.88,154.26Z"/><path class="cls-8" d="M612.33,153.19a25.87,25.87,0,0,1-13.08-46A25.87,25.87,0,1,0,630,148.8,25.7,25.7,0,0,1,612.33,153.19Z"/><path class="cls-9" d="M616.93,102.84a25.74,25.74,0,0,0-17.59,4.33,25.87,25.87,0,0,1,27.25,43.92,25.87,25.87,0,0,0-9.66-48.25Z"/><path class="cls-4" d="M145.92,369.93c-.44-1.38-43.53-139-48.22-242.22l4.63-.25c4.65,102.47,47.53,239.45,48,240.82Z"/><path class="cls-4" d="M86.9,102.22c1.68,17.2,12.91,30,12.91,30s8.5-15.09,6.81-32.29-12.9-30-12.9-30S85.22,85,86.9,102.22Z"/><path class="cls-4" d="M107.66,135.75c-6.76,13.09-4.73,28.33-4.73,28.33s13-6,19.74-19.07,4.74-28.33,4.74-28.33S114.42,122.66,107.66,135.75Z"/><path class="cls-10" d="M92.81,137.49c9.14,11.23,10.1,26.59,10.1,26.59s-13.84-2.84-23-14.08-10.1-26.59-10.1-26.59S83.68,126.25,92.81,137.49Z"/><path class="cls-10" d="M139.76,269.71c-10.09,16.44-8.83,36.68-8.83,36.68s17.6-6.42,27.69-22.87,8.82-36.68,8.82-36.68S149.84,253.26,139.76,269.71Z"/><path class="cls-4" d="M106.75,278.73c16.63,7.84,25.62,25.58,25.62,25.58s-18,5-34.61-2.8-25.61-25.58-25.61-25.58S90.12,270.89,106.75,278.73Z"/><path class="cls-4" d="M89.43,181.62C103.2,189.85,109.65,206,109.65,206S93.77,208.72,80,200.5s-20.23-24.33-20.23-24.33S75.65,173.4,89.43,181.62Z"/><path class="cls-10" d="M119.33,174.26C110,188,110.27,205.6,110.27,205.6s15.48-4.74,24.85-18.51,9.06-31.34,9.06-31.34S128.69,160.49,119.33,174.26Z"/><path class="cls-6" d="M123.89,330.33c13.77,8.22,20.22,24.33,20.22,24.33s-15.88,2.77-29.66-5.46-20.22-24.32-20.22-24.32S110.11,322.11,123.89,330.33Z"/><path class="cls-4" d="M154.28,324.72c-9.36,13.77-9.06,31.34-9.06,31.34s15.49-4.74,24.85-18.51,9.06-31.34,9.06-31.34S163.65,311,154.28,324.72Z"/><path class="cls-10" d="M97.49,228.26c13.8,8.16,20.3,24.22,20.3,24.22s-15.86,2.84-29.65-5.32-20.3-24.22-20.3-24.22S83.7,220.11,97.49,228.26Z"/><path class="cls-4" d="M127.93,220.1c-9.36,13.75-9.06,31.32-9.06,31.32s15.47-4.75,24.83-18.5,9.05-31.32,9.05-31.32S137.28,206.34,127.93,220.1Z"/><circle class="cls-7" cx="82.35" cy="158.84" r="20.07" transform="translate(-96.04 172.54) rotate(-66.99)"/><circle class="cls-7" cx="82.35" cy="158.84" r="20.07" transform="translate(-96.04 172.54) rotate(-66.99)"/><path class="cls-7" d="M103.94,166.39a22.93,22.93,0,1,1-14.07-29.22A22.93,22.93,0,0,1,103.94,166.39Z"/><circle class="cls-7" cx="82.35" cy="158.84" r="20.07" transform="translate(-96.04 172.54) rotate(-66.99)"/><path class="cls-8" d="M77,177.22a20.06,20.06,0,0,1-2.13-37,20.06,20.06,0,1,0,16.25,36.65A20,20,0,0,1,77,177.22Z"/><path class="cls-9" d="M89,139.89a20,20,0,0,0-14,.31A20.06,20.06,0,0,1,88.14,178,20.06,20.06,0,0,0,89,139.89Z"/><path class="cls-7" d="M149.73,249A20.59,20.59,0,1,1,151.9,220,20.63,20.63,0,0,1,149.73,249Z"/><path class="cls-7" d="M149.73,249A20.59,20.59,0,1,1,151.9,220,20.63,20.63,0,0,1,149.73,249Z"/><path class="cls-7" d="M154.08,218.07a23.54,23.54,0,1,1-33.2-2.47A23.54,23.54,0,0,1,154.08,218.07Z"/><path class="cls-7" d="M149.73,249A20.59,20.59,0,1,1,151.9,220,20.63,20.63,0,0,1,149.73,249Z"/><path class="cls-8" d="M149.89,247.58a20.59,20.59,0,0,1-34-17.07,20.58,20.58,0,1,0,40.91,4.35A20.46,20.46,0,0,1,149.89,247.58Z"/><path class="cls-9" d="M122.85,217.79a20.49,20.49,0,0,0-6.93,12.63,20.58,20.58,0,0,1,40.41,7.67,20.58,20.58,0,0,0-33.48-20.3Z"/><path class="cls-7" d="M570.17,396.12V407c0,1.9,1.33,3.25,3,4.15,7.54,4,23.22,7.3,39.25,7.47,14.16.16,26.24-.94,35.94-4.31.82-.27,1.63-.57,2.42-.91a42.17,42.17,0,0,0,4.55-2.12,4.38,4.38,0,0,0,2.54-3.79V396.12Z"/><path class="cls-7" d="M570.17,396.12V407c0,1.9,1.33,3.25,3,4.15,7.54,4,23.22,7.3,39.25,7.47A136.54,136.54,0,0,0,639,416.7c.81-.14,1.6-.32,2.38-.49s1.51-.35,2.25-.54,1.6-.41,2.38-.65,1.6-.49,2.38-.76,1.63-.57,2.42-.91a42.17,42.17,0,0,0,4.55-2.12,4.38,4.38,0,0,0,2.54-3.79V396.12Z"/><path class="cls-7" d="M570.17,396.12V407a4.29,4.29,0,0,0,2,3.49,6,6,0,0,0,1,.66c.38.21.77.42,1.2.61.73.34,1.52.69,2.38,1s1.46.57,2.25.82,1.55.51,2.38.77,1.47.41,2.25.61,1.57.4,2.38.59l2.23.51,2.38.46c.75.14,1.49.27,2.25.39l2.38.38,2.25.31c.78.09,1.57.19,2.38.26l2.23.23c.78.08,1.59.14,2.38.19s1.49.11,2.25.14,1.59.08,2.38.11,1.49.05,2.25.06l1,0c.44,0,.89,0,1.33,0,.75,0,1.49,0,2.24,0s1.58,0,2.37,0,1.51,0,2.25-.06,1.61,0,2.38-.08,1.51-.06,2.25-.11,1.6-.09,2.38-.16,1.49-.11,2.24-.19,1.6-.14,2.37-.25,1.51-.16,2.26-.29,1.6-.2,2.37-.35,1.41-.23,2.11-.36,1.6-.32,2.38-.49,1.51-.35,2.25-.54,1.6-.41,2.38-.65,1.6-.49,2.38-.76,1.63-.57,2.42-.91a42.17,42.17,0,0,0,4.55-2.12,4.38,4.38,0,0,0,2.54-3.79V396.12Z"/><path class="cls-8" d="M570.17,396.12a5.73,5.73,0,0,0,2,4.2,12.84,12.84,0,0,0,2.23,1.67,21.12,21.12,0,0,0,2.38,1.19c.71.3,1.46.58,2.25.85s1.55.51,2.38.75,1.47.39,2.25.57,1.57.36,2.38.52,1.47.29,2.23.41,1.57.27,2.38.38,1.51.23,2.25.31,1.59.2,2.38.3,1.51.16,2.25.22,1.6.14,2.38.21l2.23.15c.83.07,1.62.11,2.38.15l2.25.12,2.38.08,2.25.07H616l2.37,0,2.25-.07L623,408c.73,0,1.48-.08,2.25-.13s1.57-.09,2.38-.16l2.24-.19q1.18-.09,2.37-.24c.75-.07,1.51-.15,2.26-.25s1.58-.21,2.37-.32c10.69-1.52,21-4.56,21-10.62,0-11.81-39.36-12.14-43.87-12.14S570.17,384.31,570.17,396.12Z"/><path class="cls-7" d="M573.33,396.13c0,5,18.22,10.57,40.69,10.57s40.69-5.61,40.69-10.57S636.49,385.56,614,385.56,573.33,391.17,573.33,396.13Z"/><path class="cls-11" d="M614,385.56c22.47,0,40.69,5.61,40.69,10.57a3.94,3.94,0,0,1-1.84,2.83,2.46,2.46,0,0,0,.39-1.25c0-4.77-17.54-10.17-39.17-10.17s-39.17,5.4-39.17,10.17a2.48,2.48,0,0,0,.5,1.42c-1.35-1-2.09-2-2.09-3C573.33,391.17,591.55,385.56,614,385.56Z"/><path class="cls-8" d="M650.79,403.37v10c-.79.34-1.6.64-2.42.91v-10C649.22,404,650,403.68,650.79,403.37Z"/><path class="cls-8" d="M655.63,400.54v10.52l-.29.17c-.68.37-1.37.71-2.08,1V402.2A13.22,13.22,0,0,0,655.63,400.54Z"/><path class="cls-8" d="M646,405V415c-.78.24-1.57.46-2.38.65V405.53C644.42,405.35,645.21,405.16,646,405Z"/><path class="cls-8" d="M641.36,406v10.21c-.78.17-1.57.35-2.38.49V406.42C639.78,406.29,640.58,406.15,641.36,406Z"/><path class="cls-8" d="M634.5,407.06v10.35c.8-.09,1.6-.2,2.37-.35V406.74C636.08,406.85,635.29,407,634.5,407.06Z"/><path class="cls-11" d="M629.87,407.55V418c.81-.06,1.6-.14,2.37-.25V407.31Q631.06,407.46,629.87,407.55Z"/><path class="cls-11" d="M625.25,407.9v10.4c.81,0,1.6-.09,2.38-.16v-10.4C626.82,407.81,626,407.85,625.25,407.9Z"/><path class="cls-11" d="M620.62,408.15v10.34c.81,0,1.61,0,2.38-.08V408Z"/><path class="cls-11" d="M616,408.27v10.3c.79,0,1.58,0,2.37,0V408.22Z"/><path class="cls-11" d="M611.38,408.27v10.28l1,0c.44,0,.89,0,1.33,0V408.28Z"/><path class="cls-11" d="M606.75,408.12v10.26c.8.05,1.59.08,2.38.11V408.2Z"/><path class="cls-11" d="M602.12,407.85v10.2c.78.08,1.59.14,2.38.19V408C603.74,408,603,407.92,602.12,407.85Z"/><path class="cls-11" d="M597.51,407.49v10.07c.78.09,1.57.19,2.38.26V407.7C599.11,407.63,598.3,407.57,597.51,407.49Z"/><path class="cls-11" d="M592.88,407v9.9l2.38.38v-10C594.47,407.17,593.67,407.08,592.88,407Z"/><path class="cls-11" d="M588.25,406.28V416l2.38.46v-9.82C589.82,406.55,589,406.43,588.25,406.28Z"/><path class="cls-9" d="M583.64,405.35v9.57c.78.21,1.57.4,2.38.59v-9.64C585.21,405.71,584.42,405.54,583.64,405.35Z"/><path class="cls-9" d="M579,404v9.51c.76.27,1.55.51,2.38.77v-9.53C580.56,404.54,579.77,404.3,579,404Z"/><path class="cls-9" d="M574.38,402v9.72c.73.34,1.52.69,2.38,1v-9.54A21.12,21.12,0,0,1,574.38,402Z"/><path class="cls-9" d="M570.17,396.12V407a4.29,4.29,0,0,0,2,3.49V400.32A5.73,5.73,0,0,1,570.17,396.12Z"/><path class="cls-7" d="M584.44,383v10.2c0,1.79,1.25,3.06,2.83,3.91,7.11,3.8,21.88,6.86,37,7,13.33.15,24.71-.88,33.85-4.06.77-.26,1.53-.54,2.28-.85a42,42,0,0,0,4.28-2,4.13,4.13,0,0,0,2.39-3.57V383Z"/><path class="cls-7" d="M584.44,383v10.2c0,1.79,1.25,3.06,2.83,3.91,7.11,3.8,21.88,6.86,37,7a128.52,128.52,0,0,0,25-1.76c.76-.14,1.51-.3,2.24-.47s1.42-.32,2.12-.5,1.5-.39,2.24-.62,1.5-.46,2.24-.71,1.53-.54,2.28-.85a42,42,0,0,0,4.28-2,4.13,4.13,0,0,0,2.39-3.57V383Z"/><path class="cls-7" d="M584.44,383v10.2a4,4,0,0,0,1.86,3.28,6.2,6.2,0,0,0,1,.63c.36.19.74.38,1.14.56.69.33,1.43.66,2.24,1s1.37.54,2.12.78,1.46.47,2.24.71,1.39.39,2.12.58,1.48.38,2.24.56l2.1.47,2.24.44,2.12.37,2.24.36,2.12.28,2.24.26c.69.07,1.39.15,2.11.21s1.49.13,2.24.18,1.4.1,2.12.13l2.23.1c.71,0,1.41.05,2.12.06l1,0h3.36c.75,0,1.49,0,2.24,0s1.42,0,2.12-.06,1.51,0,2.24-.07,1.42-.06,2.12-.11,1.51-.08,2.24-.14l2.1-.18c.76-.06,1.51-.14,2.24-.24s1.42-.15,2.12-.27,1.51-.2,2.24-.33,1.33-.22,2-.34,1.51-.3,2.24-.47,1.42-.32,2.12-.5,1.5-.39,2.24-.62,1.5-.46,2.24-.71,1.53-.54,2.28-.85a42,42,0,0,0,4.28-2,4.13,4.13,0,0,0,2.39-3.57V383Z"/><path class="cls-8" d="M584.44,383a5.4,5.4,0,0,0,1.86,4,11.81,11.81,0,0,0,2.11,1.57,18,18,0,0,0,2.24,1.12c.67.29,1.37.55,2.12.81s1.46.48,2.24.7,1.39.37,2.12.54,1.48.34,2.24.49,1.39.27,2.1.39,1.48.25,2.24.36,1.42.21,2.12.28l2.24.28c.7.08,1.42.15,2.12.21s1.51.14,2.24.2l2.11.15c.77.06,1.52.1,2.24.13l2.12.12,2.23.07,2.12.06c1,0,1.75,0,2.24,0h.24c.38,0,1,0,1.87,0l2.24,0c.66,0,1.36-.05,2.12-.06l2.24-.12,2.12-.12,2.24-.15,2.1-.18c.75-.06,1.5-.13,2.24-.22s1.42-.15,2.12-.24,1.5-.19,2.24-.3c10.06-1.43,19.78-4.3,19.78-10,0-11.12-37.07-11.44-41.31-11.44S584.44,371.9,584.44,383Z"/><path class="cls-7" d="M587.42,383c0,4.68,17.15,10,38.32,10s38.32-5.28,38.32-10-17.16-9.95-38.32-9.95S587.42,378.35,587.42,383Z"/><path class="cls-11" d="M625.74,373.07c21.16,0,38.32,5.28,38.32,9.95a3.7,3.7,0,0,1-1.74,2.67,2.29,2.29,0,0,0,.37-1.17c0-4.5-16.52-9.59-36.89-9.59s-36.89,5.09-36.89,9.59a2.42,2.42,0,0,0,.47,1.33c-1.27-.93-2-1.89-2-2.83C587.42,378.35,604.57,373.07,625.74,373.07Z"/><path class="cls-8" d="M660.37,389.84v9.41c-.75.31-1.51.59-2.28.85v-9.42Q659.29,390.29,660.37,389.84Z"/><path class="cls-8" d="M664.93,387.18v9.9a2.61,2.61,0,0,1-.28.17c-.63.34-1.29.67-2,1v-9.49A12.62,12.62,0,0,0,664.93,387.18Z"/><path class="cls-8" d="M655.85,391.33v9.48c-.74.23-1.48.44-2.24.62v-9.55C654.37,391.71,655.12,391.53,655.85,391.33Z"/><path class="cls-8" d="M651.49,392.32v9.61c-.73.17-1.48.33-2.24.47v-9.69C650,392.59,650.75,392.46,651.49,392.32Z"/><path class="cls-8" d="M645,393.32v9.75c.76-.09,1.51-.2,2.24-.33V393C646.52,393.13,645.77,393.23,645,393.32Z"/><path class="cls-11" d="M640.66,393.78v9.8c.76-.06,1.51-.14,2.24-.24v-9.78C642.16,393.65,641.41,393.72,640.66,393.78Z"/><path class="cls-11" d="M636.32,394.11v9.79c.76,0,1.51-.08,2.24-.14V394Z"/><path class="cls-11" d="M632,394.35v9.73c.76,0,1.51,0,2.24-.07v-9.78Z"/><path class="cls-11" d="M627.6,394.45v9.71c.75,0,1.49,0,2.24,0v-9.73Z"/><path class="cls-11" d="M623.25,394.45v9.69l1,0h1.25v-9.7C625,394.47,624.24,394.47,623.25,394.45Z"/><path class="cls-11" d="M618.9,394.32V404l2.23.1v-9.69Z"/><path class="cls-11" d="M614.54,394.07v9.6c.73.07,1.49.13,2.24.18V394.2C616.06,394.17,615.31,394.13,614.54,394.07Z"/><path class="cls-11" d="M610.19,393.72v9.48l2.24.26v-9.54C611.7,393.86,610.94,393.8,610.19,393.72Z"/><path class="cls-11" d="M605.83,393.23v9.33l2.24.36v-9.41Z"/><path class="cls-11" d="M601.47,392.59v9.16l2.24.44V393C603,392.84,602.2,392.72,601.47,392.59Z"/><path class="cls-9" d="M597.13,391.71v9c.73.2,1.48.38,2.24.56V392.2C598.61,392.05,597.86,391.89,597.13,391.71Z"/><path class="cls-9" d="M592.77,390.47v9c.71.25,1.46.47,2.24.71v-9C594.23,391,593.48,390.72,592.77,390.47Z"/><path class="cls-9" d="M588.41,388.54v9.15c.69.33,1.43.66,2.24,1v-9A18,18,0,0,1,588.41,388.54Z"/><path class="cls-9" d="M584.44,383v10.2a4,4,0,0,0,1.86,3.28V387A5.4,5.4,0,0,1,584.44,383Z"/><path class="cls-7" d="M584.66,372.17v10.07c0,1.77,1.24,3,2.8,3.86,7,3.76,21.59,6.78,36.49,6.95,13.17.14,24.4-.87,33.42-4,.76-.25,1.52-.53,2.25-.84a41.09,41.09,0,0,0,4.23-2,4.06,4.06,0,0,0,2.36-3.52V372.17Z"/><path class="cls-7" d="M584.66,372.17v10.07c0,1.77,1.24,3,2.8,3.86,7,3.76,21.59,6.78,36.49,6.95a126.9,126.9,0,0,0,24.69-1.74c.75-.14,1.49-.3,2.21-.46s1.4-.33,2.1-.5,1.48-.39,2.21-.61,1.49-.45,2.21-.7,1.52-.53,2.25-.84a41.09,41.09,0,0,0,4.23-2,4.06,4.06,0,0,0,2.36-3.52V372.17Z"/><path class="cls-7" d="M584.66,372.17v10.07a4,4,0,0,0,1.84,3.24,5.42,5.42,0,0,0,1,.62c.36.19.72.39,1.12.56.68.33,1.42.65,2.21.95s1.36.53,2.1.76,1.44.47,2.21.71l2.09.58c.72.19,1.46.36,2.21.54l2.08.47c.72.15,1.46.3,2.21.43l2.09.37,2.21.35,2.1.28c.72.09,1.45.18,2.21.25s1.37.15,2.07.21,1.48.13,2.22.18,1.38.1,2.09.13l2.21.1c.69,0,1.38,0,2.09.06l1,0h3.32c.74,0,1.47,0,2.21,0s1.4,0,2.09-.06,1.49,0,2.22-.07,1.4-.06,2.09-.11,1.49-.08,2.21-.14l2.08-.18c.75-.06,1.49-.13,2.21-.24a20.57,20.57,0,0,0,2.09-.26c.75-.09,1.49-.19,2.21-.33s1.31-.22,2-.33,1.49-.3,2.21-.46,1.4-.33,2.1-.5,1.48-.39,2.21-.61,1.49-.45,2.21-.7,1.52-.53,2.25-.84a41.09,41.09,0,0,0,4.23-2,4.06,4.06,0,0,0,2.36-3.52V372.17Z"/><path class="cls-8" d="M584.66,372.17a5.38,5.38,0,0,0,1.84,3.91,12.37,12.37,0,0,0,2.08,1.55,19.78,19.78,0,0,0,2.21,1.1c.67.28,1.36.55,2.1.8s1.44.47,2.21.69,1.37.37,2.09.53,1.46.34,2.21.49l2.08.38c.72.13,1.46.25,2.21.36s1.4.2,2.09.28l2.21.28,2.1.2c.73.08,1.48.14,2.21.19l2.07.15c.77.06,1.51.1,2.22.13l2.09.12,2.21.08,2.09,0c1,0,1.73,0,2.21,0h.24c.37,0,1,0,1.84,0l2.21,0,2.09-.06,2.22-.12,2.09-.11,2.21-.15,2.08-.18c.73-.06,1.47-.13,2.21-.22s1.4-.15,2.09-.24,1.47-.19,2.21-.29c9.94-1.41,19.53-4.24,19.53-9.88,0-11-36.6-11.28-40.78-11.28S584.66,361.19,584.66,372.17Z"/><ellipse class="cls-7" cx="625.43" cy="372.18" rx="37.83" ry="9.83"/><path class="cls-11" d="M625.43,362.35c20.9,0,37.83,5.22,37.83,9.83a3.63,3.63,0,0,1-1.71,2.63,2.28,2.28,0,0,0,.36-1.16c0-4.44-16.3-9.46-36.42-9.46s-36.41,5-36.41,9.46a2.35,2.35,0,0,0,.46,1.32c-1.25-.92-1.94-1.87-1.94-2.79C587.6,367.57,604.54,362.35,625.43,362.35Z"/><path class="cls-8" d="M659.62,378.91v9.29c-.73.31-1.49.59-2.25.84v-9.3C658.16,379.48,658.91,379.2,659.62,378.91Z"/><path class="cls-8" d="M664.12,376.28v9.78l-.27.16c-.63.34-1.28.66-1.94,1v-9.37A12.31,12.31,0,0,0,664.12,376.28Z"/><path class="cls-8" d="M655.16,380.38v9.36c-.73.22-1.46.43-2.21.61v-9.43C653.7,380.76,654.44,380.57,655.16,380.38Z"/><path class="cls-8" d="M650.85,381.36v9.49c-.72.16-1.46.32-2.21.46v-9.56C649.39,381.63,650.12,381.5,650.85,381.36Z"/><path class="cls-8" d="M644.47,382.34V392c.75-.09,1.49-.19,2.21-.33v-9.59C645.94,382.15,645.21,382.26,644.47,382.34Z"/><path class="cls-11" d="M640.17,382.8v9.67c.75-.06,1.49-.13,2.21-.24v-9.65C641.64,382.67,640.9,382.74,640.17,382.8Z"/><path class="cls-11" d="M635.88,383.13v9.66c.75,0,1.49-.08,2.21-.14V383Z"/><path class="cls-11" d="M631.57,383.36V393c.76,0,1.49,0,2.22-.07v-9.66Z"/><path class="cls-11" d="M627.27,383.46v9.59c.74,0,1.47,0,2.21,0v-9.61Z"/><path class="cls-11" d="M623,383.46V393l1,0h1.24v-9.58C624.71,383.48,624,383.48,623,383.46Z"/><path class="cls-11" d="M618.68,383.33v9.54l2.21.1v-9.56Z"/><path class="cls-11" d="M614.37,383.08v9.48c.73.07,1.48.13,2.22.18v-9.53C615.88,383.18,615.14,383.14,614.37,383.08Z"/><path class="cls-11" d="M610.09,382.74v9.36c.72.09,1.45.18,2.21.25v-9.42C611.57,382.88,610.82,382.82,610.09,382.74Z"/><path class="cls-11" d="M605.78,382.26v9.21l2.21.35v-9.28Z"/><path class="cls-11" d="M601.48,381.62v9.05c.72.15,1.46.3,2.21.43V382C602.94,381.87,602.2,381.75,601.48,381.62Z"/><path class="cls-9" d="M597.19,380.75v8.91c.72.19,1.46.36,2.21.54v-9C598.65,381.09,597.91,380.93,597.19,380.75Z"/><path class="cls-9" d="M592.89,379.53v8.84c.7.25,1.44.47,2.21.71v-8.86C594.33,380,593.59,379.78,592.89,379.53Z"/><path class="cls-9" d="M588.58,377.63v9c.68.33,1.42.65,2.21.95v-8.88A19.78,19.78,0,0,1,588.58,377.63Z"/><path class="cls-9" d="M584.66,372.17v10.07a4,4,0,0,0,1.84,3.24v-9.4A5.38,5.38,0,0,1,584.66,372.17Z"/><path class="cls-7" d="M583.83,359.68v10.06c0,1.77,1.24,3,2.8,3.87,7,3.75,21.59,6.78,36.49,6.94,13.16.14,24.39-.87,33.41-4,.77-.25,1.52-.53,2.26-.84a40,40,0,0,0,4.23-2,4.06,4.06,0,0,0,2.36-3.52V359.68Z"/><path class="cls-7" d="M583.83,359.68v10.06c0,1.77,1.24,3,2.8,3.87,7,3.75,21.59,6.78,36.49,6.94a127,127,0,0,0,24.69-1.74c.75-.13,1.49-.3,2.21-.46s1.4-.32,2.09-.5,1.49-.38,2.21-.6,1.49-.46,2.21-.71,1.52-.53,2.26-.84a40,40,0,0,0,4.23-2,4.06,4.06,0,0,0,2.36-3.52V359.68Z"/><path class="cls-7" d="M583.83,359.68v10.06a4,4,0,0,0,1.84,3.25,6.85,6.85,0,0,0,1,.62c.35.19.72.38,1.12.56.68.32,1.41.64,2.21.94s1.36.53,2.09.77,1.45.47,2.21.7,1.37.39,2.1.58,1.46.37,2.21.54,1.37.31,2.07.47,1.46.3,2.22.43L605,379l2.21.35c.69.09,1.38.2,2.09.28s1.46.18,2.21.25,1.37.15,2.08.21,1.48.13,2.21.18,1.39.1,2.09.13l2.22.1c.69,0,1.38,0,2.09.06l1,0h3.32c.73,0,1.47,0,2.21,0s1.4,0,2.09-.06,1.49,0,2.21-.07,1.4-.06,2.09-.1,1.49-.09,2.22-.15,1.38-.1,2.07-.18,1.49-.13,2.21-.23,1.4-.15,2.1-.27,1.49-.19,2.21-.32l2-.34c.75-.13,1.49-.3,2.21-.46s1.4-.32,2.09-.5,1.49-.38,2.21-.6,1.49-.46,2.21-.71,1.52-.53,2.26-.84a40,40,0,0,0,4.23-2,4.06,4.06,0,0,0,2.36-3.52V359.68Z"/><path class="cls-8" d="M583.83,359.68a5.36,5.36,0,0,0,1.84,3.9,12,12,0,0,0,2.08,1.55,19,19,0,0,0,2.21,1.11c.66.28,1.36.54,2.09.79s1.45.47,2.21.69,1.37.37,2.1.54,1.46.33,2.21.48,1.37.27,2.07.39,1.46.25,2.22.35,1.4.21,2.09.28l2.21.28,2.09.21,2.21.19c.71.06,1.4.1,2.08.14s1.5.11,2.21.14,1.43.09,2.09.11l2.22.08c.78,0,1.47,0,2.09.06h4.29l2.21-.05,2.09-.06,2.21-.11,2.09-.12,2.22-.15,2.07-.18c.74-.05,1.48-.13,2.21-.22s1.4-.14,2.1-.23l2.21-.3c9.93-1.41,19.53-4.24,19.53-9.87,0-11-36.6-11.29-40.78-11.29S583.83,348.7,583.83,359.68Z"/><path class="cls-7" d="M586.77,359.68c0,4.62,16.94,9.83,37.83,9.83s37.83-5.21,37.83-9.83-16.94-9.82-37.83-9.82S586.77,355.07,586.77,359.68Z"/><path class="cls-11" d="M624.6,349.86c20.89,0,37.83,5.21,37.83,9.82a3.63,3.63,0,0,1-1.71,2.63,2.27,2.27,0,0,0,.36-1.15c0-4.44-16.31-9.46-36.42-9.46s-36.42,5-36.42,9.46a2.41,2.41,0,0,0,.47,1.32c-1.25-.93-1.94-1.88-1.94-2.8C586.77,355.07,603.71,349.86,624.6,349.86Z"/><path class="cls-8" d="M658.79,366.41v9.29c-.74.31-1.49.59-2.26.84v-9.3C657.33,367,658.08,366.71,658.79,366.41Z"/><path class="cls-8" d="M663.29,363.79v9.77l-.27.16c-.63.34-1.28.67-1.94,1v-9.37A12.29,12.29,0,0,0,663.29,363.79Z"/><path class="cls-8" d="M654.32,367.88v9.37c-.72.22-1.46.42-2.21.6v-9.42C652.87,368.26,653.6,368.08,654.32,367.88Z"/><path class="cls-8" d="M650,368.86v9.49c-.72.16-1.46.33-2.21.46v-9.56C648.55,369.13,649.29,369,650,368.86Z"/><path class="cls-8" d="M643.64,369.85v9.62c.75-.09,1.49-.19,2.21-.32v-9.6Z"/><path class="cls-11" d="M639.33,370.3V380c.76-.06,1.49-.13,2.21-.23v-9.66C640.81,370.17,640.07,370.25,639.33,370.3Z"/><path class="cls-11" d="M635,370.63v9.67c.76,0,1.49-.09,2.22-.15v-9.67Z"/><path class="cls-11" d="M630.74,370.86v9.61c.75,0,1.49,0,2.21-.07v-9.65Z"/><path class="cls-11" d="M626.44,371v9.58c.73,0,1.47,0,2.21,0v-9.61Z"/><path class="cls-11" d="M622.15,371v9.56l1,0h1.24V371Z"/><path class="cls-11" d="M617.84,370.83v9.54l2.22.1v-9.56Z"/><path class="cls-11" d="M613.54,370.58v9.48c.72.07,1.48.13,2.21.18v-9.52C615,370.69,614.31,370.64,613.54,370.58Z"/><path class="cls-11" d="M609.25,370.25v9.35c.72.09,1.46.18,2.21.25v-9.41Z"/><path class="cls-11" d="M605,369.76V379l2.21.35V370Z"/><path class="cls-11" d="M600.64,369.13v9c.73.15,1.46.3,2.22.43v-9.12C602.1,369.38,601.37,369.26,600.64,369.13Z"/><path class="cls-9" d="M596.36,368.26v8.9c.72.19,1.46.37,2.21.54v-9C597.82,368.59,597.08,368.43,596.36,368.26Z"/><path class="cls-9" d="M592.05,367v8.85c.71.25,1.45.47,2.21.7v-8.86C593.5,367.5,592.76,367.28,592.05,367Z"/><path class="cls-9" d="M587.75,365.13v9c.68.32,1.41.64,2.21.94v-8.87A19,19,0,0,1,587.75,365.13Z"/><path class="cls-9" d="M583.83,359.68v10.06a4,4,0,0,0,1.84,3.25v-9.41A5.36,5.36,0,0,1,583.83,359.68Z"/><path class="cls-7" d="M214.58,427v10.13c0,1.78-1.25,3-2.82,3.88-7,3.78-21.71,6.82-36.7,7-13.24.15-24.53-.87-33.6-4-.77-.25-1.53-.53-2.27-.84a42.67,42.67,0,0,1-4.26-2,4.11,4.11,0,0,1-2.37-3.54V427Z"/><path class="cls-7" d="M214.58,427v10.13c0,1.78-1.25,3-2.82,3.88-7,3.78-21.71,6.82-36.7,7a126.78,126.78,0,0,1-24.83-1.75c-.75-.13-1.5-.29-2.22-.45s-1.41-.33-2.11-.51-1.49-.38-2.22-.61-1.5-.46-2.22-.71-1.53-.53-2.27-.84a42.67,42.67,0,0,1-4.26-2,4.11,4.11,0,0,1-2.37-3.54V427Z"/><path class="cls-7" d="M214.58,427v10.13a4,4,0,0,1-1.85,3.26,6.14,6.14,0,0,1-1,.62c-.35.19-.72.39-1.12.57-.69.32-1.43.65-2.23.94s-1.36.54-2.1.78-1.45.47-2.23.71l-2.1.57c-.73.2-1.47.38-2.22.55s-1.38.31-2.09.48l-2.23.43-2.1.37-2.23.35-2.1.29-2.22.25c-.69.07-1.38.15-2.09.2s-1.49.14-2.23.18-1.39.11-2.1.14l-2.23.1c-.69,0-1.39,0-2.1.06h-1c-.41,0-.83,0-1.24,0-.7,0-1.4,0-2.09,0s-1.49,0-2.23,0-1.41,0-2.1-.06-1.5,0-2.23-.07-1.4-.06-2.1-.11-1.5-.09-2.23-.15-1.39-.1-2.09-.17-1.49-.14-2.22-.24-1.41-.15-2.1-.27-1.5-.19-2.23-.32l-2-.35c-.75-.13-1.5-.29-2.22-.45s-1.41-.33-2.11-.51-1.49-.38-2.22-.61-1.5-.46-2.22-.71-1.53-.53-2.27-.84a42.67,42.67,0,0,1-4.26-2,4.11,4.11,0,0,1-2.37-3.54V427Z"/><path class="cls-8" d="M214.58,427a5.38,5.38,0,0,1-1.85,3.93,11.61,11.61,0,0,1-2.09,1.56,20.14,20.14,0,0,1-2.23,1.11c-.66.28-1.36.55-2.1.8s-1.45.48-2.23.7-1.37.37-2.1.53-1.47.34-2.22.49-1.38.27-2.09.39-1.47.25-2.23.35-1.41.21-2.1.28-1.48.2-2.23.29l-2.1.2c-.74.08-1.5.14-2.22.2l-2.09.14c-.77.06-1.52.11-2.23.14l-2.1.12-2.23.07c-.78,0-1.48,0-2.1.06h-4.31l-2.23-.05-2.1-.05c-.7,0-1.46-.08-2.23-.12l-2.1-.12-2.23-.15-2.09-.18c-.74-.06-1.48-.13-2.22-.22s-1.41-.15-2.1-.24L152.2,437c-10-1.43-19.64-4.27-19.64-9.94,0-11,36.81-11.35,41-11.35S214.58,416,214.58,427Z"/><ellipse class="cls-7" cx="173.57" cy="427.02" rx="38.05" ry="9.88"/><path class="cls-11" d="M173.57,417.14c-21,0-38,5.24-38,9.88a3.64,3.64,0,0,0,1.72,2.64,2.28,2.28,0,0,1-.36-1.16c0-4.46,16.39-9.51,36.62-9.51s36.63,5.05,36.63,9.51a2.42,2.42,0,0,1-.47,1.33c1.26-.93,2-1.88,2-2.81C211.62,422.38,194.59,417.14,173.57,417.14Z"/><path class="cls-8" d="M139.19,433.79v9.34c.74.31,1.5.59,2.27.84v-9.35C140.66,434.36,139.91,434.08,139.19,433.79Z"/><path class="cls-8" d="M134.66,431.15V441l.27.16c.64.34,1.29.67,2,1V432.7A12.5,12.5,0,0,1,134.66,431.15Z"/><path class="cls-8" d="M143.68,435.27v9.41c.73.23,1.47.43,2.22.61v-9.48Q144.76,435.55,143.68,435.27Z"/><path class="cls-8" d="M148,436.25v9.55c.72.16,1.47.32,2.22.45v-9.61Q149.1,436.46,148,436.25Z"/><path class="cls-8" d="M154.43,437.24v9.68c-.76-.09-1.5-.19-2.23-.32V437Z"/><path class="cls-11" d="M158.75,437.7v9.73q-1.12-.09-2.22-.24v-9.71C157.27,437.57,158,437.64,158.75,437.7Z"/><path class="cls-11" d="M163.07,438v9.72c-.76,0-1.5-.09-2.23-.15v-9.72Z"/><path class="cls-11" d="M167.4,438.27v9.66c-.76,0-1.5,0-2.23-.07v-9.71C165.94,438.19,166.7,438.22,167.4,438.27Z"/><path class="cls-11" d="M171.73,438.37V448c-.75,0-1.49,0-2.23,0v-9.67Z"/><path class="cls-11" d="M176,438.37V448h-1c-.41,0-.83,0-1.24,0v-9.64Z"/><path class="cls-11" d="M180.37,438.24v9.59l-2.23.1v-9.62Z"/><path class="cls-11" d="M184.7,438v9.53c-.73.08-1.49.14-2.23.18v-9.57C183.18,438.09,183.93,438,184.7,438Z"/><path class="cls-11" d="M189,437.64v9.42l-2.22.25v-9.47C187.51,437.78,188.27,437.72,189,437.64Z"/><path class="cls-11" d="M193.34,437.15v9.27l-2.23.35v-9.33C191.86,437.35,192.6,437.26,193.34,437.15Z"/><path class="cls-11" d="M197.67,436.52v9.1l-2.23.43v-9.18C196.2,436.77,196.94,436.65,197.67,436.52Z"/><path class="cls-9" d="M202,435.64v8.95c-.73.2-1.47.38-2.22.55v-9C200.51,436,201.25,435.82,202,435.64Z"/><path class="cls-9" d="M206.31,434.41v8.9c-.71.25-1.45.47-2.23.71v-8.91C204.86,434.89,205.6,434.66,206.31,434.41Z"/><path class="cls-9" d="M210.64,432.5v9.09c-.69.32-1.43.65-2.23.94v-8.92A20.14,20.14,0,0,0,210.64,432.5Z"/><path class="cls-9" d="M214.58,427v10.13a4,4,0,0,1-1.85,3.26v-9.46A5.38,5.38,0,0,0,214.58,427Z"/><path class="cls-7" d="M214.85,413.28v10.13c0,1.78-1.24,3-2.81,3.88-7.06,3.78-21.72,6.82-36.7,7-13.24.15-24.54-.87-33.61-4-.77-.25-1.53-.53-2.27-.84a42.5,42.5,0,0,1-4.25-2,4.09,4.09,0,0,1-2.37-3.54V413.28Z"/><path class="cls-7" d="M214.85,413.28v10.13c0,1.78-1.24,3-2.81,3.88-7.06,3.78-21.72,6.82-36.7,7a126.66,126.66,0,0,1-24.83-1.75c-.76-.13-1.5-.29-2.23-.46s-1.41-.32-2.1-.5-1.5-.38-2.23-.61-1.49-.46-2.22-.71-1.53-.53-2.27-.84a42.5,42.5,0,0,1-4.25-2,4.09,4.09,0,0,1-2.37-3.54V413.28Z"/><path class="cls-7" d="M214.85,413.28v10.13a4,4,0,0,1-1.85,3.26,6.05,6.05,0,0,1-1,.62c-.36.19-.73.39-1.13.56a23.14,23.14,0,0,1-2.22.95c-.67.27-1.37.54-2.11.77s-1.45.48-2.22.72l-2.11.57c-.72.2-1.46.37-2.22.55s-1.38.31-2.09.48l-2.22.43-2.11.37-2.22.35c-.7.09-1.39.2-2.11.28l-2.22.26-2.09.2c-.73.08-1.48.14-2.22.18s-1.4.11-2.11.14l-2.22.1c-.7,0-1.4,0-2.11.06h-1c-.42,0-.84,0-1.25,0-.7,0-1.39,0-2.09,0s-1.48,0-2.22,0-1.41,0-2.11-.06-1.5,0-2.22-.07-1.41-.06-2.11-.11-1.49-.09-2.22-.15-1.39-.1-2.09-.17-1.5-.14-2.22-.24-1.41-.15-2.11-.27-1.5-.19-2.22-.32l-2-.35c-.76-.13-1.5-.29-2.23-.46s-1.41-.32-2.1-.5-1.5-.38-2.23-.61-1.49-.46-2.22-.71-1.53-.53-2.27-.84a42.5,42.5,0,0,1-4.25-2,4.09,4.09,0,0,1-2.37-3.54V413.28Z"/><path class="cls-8" d="M214.85,413.28a5.4,5.4,0,0,1-1.85,3.93,12.1,12.1,0,0,1-2.09,1.56,19.14,19.14,0,0,1-2.22,1.11c-.67.28-1.37.55-2.11.8s-1.45.47-2.22.7-1.38.37-2.11.53-1.46.34-2.22.49-1.38.27-2.09.38-1.47.26-2.22.36-1.41.21-2.11.28-1.48.2-2.22.28-1.41.15-2.11.21-1.49.14-2.22.19l-2.09.15c-.77.06-1.51.11-2.22.14l-2.11.11-2.22.08c-.79,0-1.48,0-2.11.06H172l-2.22-.05-2.11-.06-2.22-.11-2.11-.12-2.22-.15L159,424c-.74-.06-1.48-.13-2.22-.22s-1.41-.15-2.11-.24l-2.22-.29c-10-1.43-19.64-4.27-19.64-9.94,0-11,36.8-11.35,41-11.35S214.85,402.24,214.85,413.28Z"/><ellipse class="cls-7" cx="173.85" cy="413.29" rx="38.05" ry="9.88"/><path class="cls-11" d="M173.85,403.41c-21,0-38,5.24-38,9.88a3.67,3.67,0,0,0,1.72,2.64,2.3,2.3,0,0,1-.36-1.16c0-4.47,16.4-9.51,36.63-9.51s36.62,5,36.62,9.51a2.34,2.34,0,0,1-.47,1.33c1.26-.93,1.95-1.88,1.95-2.81C211.89,408.65,194.86,403.41,173.85,403.41Z"/><path class="cls-8" d="M139.46,420.06v9.34c.74.31,1.5.59,2.27.84v-9.35C140.93,420.63,140.18,420.35,139.46,420.06Z"/><path class="cls-8" d="M134.94,417.42v9.83l.27.16c.63.34,1.28.67,1.95,1V419A12.94,12.94,0,0,1,134.94,417.42Z"/><path class="cls-8" d="M144,421.54V431c.73.23,1.47.43,2.23.61v-9.48C145.42,421.91,144.68,421.73,144,421.54Z"/><path class="cls-8" d="M148.28,422.52v9.54c.73.17,1.47.33,2.23.46v-9.61C149.76,422.79,149,422.66,148.28,422.52Z"/><path class="cls-8" d="M154.7,423.51v9.68c-.76-.09-1.5-.19-2.22-.32v-9.65Z"/><path class="cls-11" d="M159,424v9.73q-1.14-.09-2.22-.24v-9.71C157.55,423.84,158.29,423.91,159,424Z"/><path class="cls-11" d="M163.34,424.3V434c-.75,0-1.49-.09-2.22-.15v-9.72Z"/><path class="cls-11" d="M167.67,424.53v9.67c-.75,0-1.5,0-2.22-.07v-9.71Z"/><path class="cls-11" d="M172,424.64v9.63c-.74,0-1.48,0-2.22,0v-9.67Z"/><path class="cls-11" d="M176.31,424.64v9.62h-1c-.42,0-.84,0-1.25,0v-9.64Z"/><path class="cls-11" d="M180.64,424.5v9.6l-2.22.1v-9.62Z"/><path class="cls-11" d="M185,424.25v9.53c-.73.08-1.48.14-2.22.18v-9.57C183.46,424.36,184.2,424.31,185,424.25Z"/><path class="cls-11" d="M189.28,423.91v9.41l-2.22.26V424.1C187.79,424.05,188.54,424,189.28,423.91Z"/><path class="cls-11" d="M193.61,423.42v9.27l-2.22.35V423.7C192.13,423.62,192.87,423.53,193.61,423.42Z"/><path class="cls-11" d="M197.94,422.78v9.11l-2.22.43v-9.18Q196.85,423,197.94,422.78Z"/><path class="cls-9" d="M202.25,421.91v8.95c-.72.2-1.46.37-2.22.55v-9C200.79,422.25,201.53,422.09,202.25,421.91Z"/><path class="cls-9" d="M206.58,420.68v8.89c-.71.26-1.45.48-2.22.72v-8.91C205.13,421.15,205.87,420.93,206.58,420.68Z"/><path class="cls-9" d="M210.91,418.77v9.08a23.14,23.14,0,0,1-2.22.95v-8.92A19.14,19.14,0,0,0,210.91,418.77Z"/><path class="cls-9" d="M214.85,413.28v10.13a4,4,0,0,1-1.85,3.26v-9.46A5.4,5.4,0,0,0,214.85,413.28Z"/><path class="cls-7" d="M214.27,399.56v10.12c0,1.78-1.25,3-2.82,3.89-7,3.78-21.71,6.82-36.7,7-13.24.15-24.53-.88-33.6-4-.78-.26-1.53-.54-2.27-.85a42.63,42.63,0,0,1-4.26-2,4.11,4.11,0,0,1-2.37-3.55V399.56Z"/><path class="cls-7" d="M214.27,399.56v10.12c0,1.78-1.25,3-2.82,3.89-7,3.78-21.71,6.82-36.7,7a127.56,127.56,0,0,1-24.83-1.75c-.76-.13-1.5-.3-2.22-.46s-1.41-.33-2.11-.5-1.49-.39-2.22-.61-1.5-.46-2.22-.71-1.53-.54-2.27-.85a42.63,42.63,0,0,1-4.26-2,4.11,4.11,0,0,1-2.37-3.55V399.56Z"/><path class="cls-7" d="M214.27,399.56v10.12a4,4,0,0,1-1.85,3.26,6.2,6.2,0,0,1-1,.63c-.35.19-.72.38-1.12.56-.69.33-1.43.65-2.23.95s-1.36.53-2.1.77-1.45.47-2.23.71-1.37.39-2.1.58l-2.22.55-2.09.47c-.73.15-1.47.3-2.23.43s-1.39.25-2.1.37l-2.23.36-2.1.28c-.73.09-1.47.18-2.22.25s-1.38.15-2.09.21-1.49.13-2.23.18-1.39.1-2.1.13-1.49.07-2.23.1-1.39,0-2.1.06l-1,0h-3.34c-.74,0-1.48,0-2.22,0s-1.41,0-2.1-.06-1.5,0-2.23-.07-1.41-.06-2.1-.1-1.5-.09-2.23-.15l-2.09-.18c-.75-.06-1.49-.13-2.22-.24s-1.41-.15-2.1-.26-1.5-.2-2.23-.33-1.32-.22-2-.34-1.5-.3-2.22-.46-1.41-.33-2.11-.5-1.49-.39-2.22-.61-1.5-.46-2.22-.71-1.53-.54-2.27-.85a42.63,42.63,0,0,1-4.26-2,4.11,4.11,0,0,1-2.37-3.55V399.56Z"/><path class="cls-8" d="M214.27,399.56a5.4,5.4,0,0,1-1.85,3.93,12.07,12.07,0,0,1-2.09,1.55,20.14,20.14,0,0,1-2.23,1.11c-.66.29-1.36.55-2.1.81s-1.45.47-2.23.69-1.37.37-2.1.54-1.47.34-2.22.48-1.38.27-2.09.39-1.47.25-2.23.36-1.41.2-2.1.28l-2.23.28-2.1.21-2.22.19-2.09.15c-.78.06-1.52.1-2.23.13l-2.1.12-2.23.07-2.1.06c-1,0-1.74,0-2.22,0h-.24c-.37,0-1,0-1.86,0l-2.22,0c-.65,0-1.35-.05-2.1-.06l-2.23-.12-2.1-.12-2.23-.15-2.09-.17c-.74-.06-1.48-.14-2.22-.23s-1.41-.14-2.1-.23-1.49-.2-2.23-.3c-10-1.42-19.64-4.27-19.64-9.93,0-11,36.81-11.36,41-11.36S214.27,388.52,214.27,399.56Z"/><path class="cls-7" d="M211.31,399.56c0,4.64-17,9.89-38.05,9.89s-38-5.25-38-9.89,17-9.88,38-9.88S211.31,394.92,211.31,399.56Z"/><path class="cls-11" d="M173.26,389.68c-21,0-38,5.24-38,9.88a3.65,3.65,0,0,0,1.72,2.65,2.23,2.23,0,0,1-.37-1.16c0-4.47,16.4-9.52,36.63-9.52s36.63,5.05,36.63,9.52a2.39,2.39,0,0,1-.47,1.32c1.26-.93,1.95-1.88,1.95-2.81C211.31,394.92,194.28,389.68,173.26,389.68Z"/><path class="cls-8" d="M138.88,406.33v9.34c.74.31,1.49.59,2.27.85v-9.36C140.35,406.91,139.6,406.63,138.88,406.33Z"/><path class="cls-8" d="M134.35,403.69v9.83l.27.17c.64.34,1.29.66,1.95,1v-9.43A12.26,12.26,0,0,1,134.35,403.69Z"/><path class="cls-8" d="M143.37,407.81v9.42c.73.22,1.47.43,2.22.61v-9.48C144.83,408.19,144.09,408,143.37,407.81Z"/><path class="cls-8" d="M147.7,408.8v9.54c.72.16,1.46.33,2.22.46v-9.61C149.17,409.06,148.43,408.94,147.7,408.8Z"/><path class="cls-8" d="M154.12,409.79v9.68c-.76-.09-1.5-.2-2.23-.33v-9.65C152.63,409.59,153.37,409.7,154.12,409.79Z"/><path class="cls-11" d="M158.44,410.25V420c-.75-.06-1.49-.13-2.22-.24V410C157,410.11,157.7,410.19,158.44,410.25Z"/><path class="cls-11" d="M162.76,410.57v9.73c-.76,0-1.5-.09-2.23-.15v-9.73Z"/><path class="cls-11" d="M167.09,410.81v9.66c-.76,0-1.5,0-2.23-.07v-9.71Z"/><path class="cls-11" d="M171.41,410.91v9.64c-.74,0-1.48,0-2.22,0v-9.66Z"/><path class="cls-11" d="M175.73,410.91v9.62l-1,0h-1.24v-9.63C174,410.93,174.75,410.93,175.73,410.91Z"/><path class="cls-11" d="M180.06,410.78v9.59c-.74.05-1.49.07-2.23.1v-9.62Z"/><path class="cls-11" d="M184.39,410.53v9.53c-.73.07-1.49.13-2.23.18v-9.58C182.87,410.63,183.61,410.59,184.39,410.53Z"/><path class="cls-11" d="M188.7,410.19v9.41c-.73.09-1.47.18-2.22.25v-9.47Z"/><path class="cls-11" d="M193,409.7V419l-2.23.36V410Z"/><path class="cls-11" d="M197.36,409.06v9.1c-.73.15-1.47.3-2.23.43v-9.17C195.89,409.31,196.63,409.19,197.36,409.06Z"/><path class="cls-9" d="M201.67,408.19v8.95l-2.22.55v-9C200.2,408.53,200.94,408.36,201.67,408.19Z"/><path class="cls-9" d="M206,407v8.89c-.71.25-1.45.47-2.23.71v-8.91C204.55,407.43,205.29,407.21,206,407Z"/><path class="cls-9" d="M210.33,405v9.09c-.69.33-1.43.65-2.23.95v-8.93A20.14,20.14,0,0,0,210.33,405Z"/><path class="cls-9" d="M214.27,399.56v10.12a4,4,0,0,1-1.85,3.26v-9.45A5.4,5.4,0,0,0,214.27,399.56Z"/><path class="cls-7" d="M134.71,435.54v10.13c0,1.78-1.25,3-2.82,3.88-7.06,3.78-21.72,6.82-36.7,7-13.24.15-24.54-.87-33.61-4-.77-.25-1.52-.53-2.27-.84a42.5,42.5,0,0,1-4.25-2,4.11,4.11,0,0,1-2.37-3.54V435.54Z"/><path class="cls-7" d="M134.71,435.54v10.13c0,1.78-1.25,3-2.82,3.88-7.06,3.78-21.72,6.82-36.7,7a127.55,127.55,0,0,1-24.83-1.74c-.76-.14-1.5-.3-2.23-.46s-1.4-.33-2.1-.51-1.5-.38-2.22-.61-1.5-.46-2.23-.71-1.52-.53-2.27-.84a42.5,42.5,0,0,1-4.25-2,4.11,4.11,0,0,1-2.37-3.54V435.54Z"/><path class="cls-7" d="M134.71,435.54v10.13a4,4,0,0,1-1.86,3.26,5.63,5.63,0,0,1-1,.62c-.36.2-.73.39-1.13.57-.68.32-1.42.65-2.22.94s-1.36.54-2.11.78-1.45.47-2.22.71l-2.1.58c-.73.19-1.47.37-2.23.54s-1.38.31-2.09.48-1.46.29-2.22.43l-2.11.37-2.22.35-2.1.29-2.23.25c-.68.07-1.38.15-2.09.21s-1.48.13-2.22.17-1.39.11-2.11.14l-2.22.1c-.7,0-1.39,0-2.1.06h-1c-.42,0-.83,0-1.25,0-.69,0-1.39,0-2.09,0s-1.48,0-2.22,0-1.41,0-2.11-.06-1.49,0-2.22-.07-1.41-.06-2.1-.11-1.5-.09-2.23-.15-1.39-.1-2.09-.17-1.5-.14-2.22-.24-1.41-.15-2.11-.27-1.49-.19-2.22-.32l-2-.34c-.76-.14-1.5-.3-2.23-.46s-1.4-.33-2.1-.51-1.5-.38-2.22-.61-1.5-.46-2.23-.71-1.52-.53-2.27-.84a42.5,42.5,0,0,1-4.25-2,4.11,4.11,0,0,1-2.37-3.54V435.54Z"/><path class="cls-8" d="M134.71,435.54a5.39,5.39,0,0,1-1.86,3.93,11.26,11.26,0,0,1-2.09,1.56,19.14,19.14,0,0,1-2.22,1.11c-.67.28-1.36.55-2.11.8s-1.45.48-2.22.7-1.38.37-2.1.53-1.47.34-2.23.49-1.38.27-2.09.39-1.46.25-2.22.35-1.41.21-2.11.28-1.48.2-2.22.29l-2.1.2c-.75.08-1.5.14-2.23.2l-2.09.14c-.77.06-1.51.11-2.22.14l-2.11.12-2.22.07c-.79,0-1.48,0-2.1.06H91.85l-2.22,0-2.11-.05c-.69-.05-1.45-.08-2.22-.12l-2.1-.12L81,446.41l-2.09-.18c-.74-.06-1.48-.13-2.22-.22s-1.41-.15-2.11-.24l-2.22-.29c-10-1.43-19.64-4.27-19.64-9.94,0-11,36.81-11.35,41-11.35S134.71,424.5,134.71,435.54Z"/><ellipse class="cls-7" cx="93.7" cy="435.55" rx="38.05" ry="9.88"/><path class="cls-11" d="M93.7,425.67c-21,0-38.05,5.24-38.05,9.88a3.65,3.65,0,0,0,1.73,2.64A2.2,2.2,0,0,1,57,437c0-4.46,16.4-9.51,36.63-9.51s36.62,5.05,36.62,9.51a2.4,2.4,0,0,1-.46,1.33c1.26-.93,1.95-1.88,1.95-2.81C131.75,430.91,114.71,425.67,93.7,425.67Z"/><path class="cls-8" d="M59.31,442.32v9.34c.75.31,1.5.59,2.27.84v-9.35C60.79,442.89,60,442.61,59.31,442.32Z"/><path class="cls-8" d="M54.79,439.68v9.83l.27.16c.63.34,1.29.67,1.95,1v-9.42A12.41,12.41,0,0,1,54.79,439.68Z"/><path class="cls-8" d="M63.81,443.8v9.41c.72.23,1.46.43,2.22.61v-9.48Q64.89,444.09,63.81,443.8Z"/><path class="cls-8" d="M68.13,444.78v9.55c.73.16,1.47.32,2.23.46v-9.62C69.61,445.05,68.87,444.92,68.13,444.78Z"/><path class="cls-8" d="M74.55,445.77v9.68c-.75-.09-1.49-.19-2.22-.32v-9.65Z"/><path class="cls-11" d="M78.88,446.23V456c-.75-.06-1.5-.14-2.22-.24V446C77.4,446.1,78.14,446.17,78.88,446.23Z"/><path class="cls-11" d="M83.2,446.56v9.72c-.76,0-1.5-.09-2.23-.15v-9.72Z"/><path class="cls-11" d="M87.52,446.8v9.66c-.75,0-1.49,0-2.22-.07v-9.71C86.07,446.72,86.83,446.75,87.52,446.8Z"/><path class="cls-11" d="M91.85,446.9v9.63c-.74,0-1.48,0-2.22,0v-9.67Z"/><path class="cls-11" d="M96.17,446.9v9.62h-1c-.42,0-.83,0-1.25,0v-9.64Z"/><path class="cls-11" d="M100.49,446.77v9.59l-2.22.1v-9.62Z"/><path class="cls-11" d="M104.82,446.51v9.54c-.72.07-1.48.13-2.22.17v-9.57C103.31,446.62,104.05,446.57,104.82,446.51Z"/><path class="cls-11" d="M109.14,446.17v9.42l-2.23.25v-9.47C107.64,446.31,108.39,446.25,109.14,446.17Z"/><path class="cls-11" d="M113.46,445.68V455l-2.22.35V446C112,445.88,112.72,445.79,113.46,445.68Z"/><path class="cls-11" d="M117.79,445.05v9.1c-.72.15-1.46.29-2.22.43V445.4C116.33,445.3,117.07,445.18,117.79,445.05Z"/><path class="cls-9" d="M122.11,444.17v9c-.73.19-1.47.37-2.23.54v-9C120.64,444.51,121.38,444.35,122.11,444.17Z"/><path class="cls-9" d="M126.43,442.94v8.9c-.71.25-1.45.47-2.22.71v-8.91C125,443.42,125.72,443.19,126.43,442.94Z"/><path class="cls-9" d="M130.76,441v9.09c-.68.32-1.42.65-2.22.94v-8.92A19.14,19.14,0,0,0,130.76,441Z"/><path class="cls-9" d="M134.71,435.54v10.13a4,4,0,0,1-1.86,3.26v-9.46A5.39,5.39,0,0,0,134.71,435.54Z"/><path class="cls-7" d="M135,421.81v10.13c0,1.78-1.24,3-2.82,3.88-7,3.78-21.71,6.82-36.7,7-13.24.15-24.53-.87-33.6-4-.77-.25-1.53-.53-2.27-.84a42.67,42.67,0,0,1-4.26-2A4.11,4.11,0,0,1,53,432.4V421.81Z"/><path class="cls-7" d="M135,421.81v10.13c0,1.78-1.24,3-2.82,3.88-7,3.78-21.71,6.82-36.7,7a126.78,126.78,0,0,1-24.83-1.75c-.75-.13-1.49-.29-2.22-.46s-1.41-.32-2.11-.5-1.49-.38-2.22-.61-1.5-.46-2.22-.71-1.53-.53-2.27-.84a42.67,42.67,0,0,1-4.26-2A4.11,4.11,0,0,1,53,432.4V421.81Z"/><path class="cls-7" d="M135,421.81v10.13a4,4,0,0,1-1.85,3.26,5.72,5.72,0,0,1-1,.62c-.35.19-.72.39-1.12.56a23.36,23.36,0,0,1-2.23.95c-.66.27-1.36.54-2.1.77s-1.45.48-2.22.72l-2.11.57c-.73.2-1.47.37-2.22.55s-1.38.31-2.09.48l-2.23.43-2.1.37-2.22.35c-.7.09-1.4.2-2.11.28l-2.22.26-2.09.2c-.73.08-1.49.14-2.23.18s-1.39.11-2.1.14l-2.23.1c-.69,0-1.39,0-2.1.06h-1c-.41,0-.83,0-1.24,0-.7,0-1.4,0-2.09,0s-1.49,0-2.23,0-1.41,0-2.1-.06-1.5,0-2.23-.07-1.4-.06-2.1-.11-1.5-.09-2.22-.15-1.4-.1-2.09-.17-1.5-.14-2.23-.24-1.41-.15-2.1-.27-1.5-.19-2.23-.32l-2-.35c-.75-.13-1.49-.29-2.22-.46s-1.41-.32-2.11-.5-1.49-.38-2.22-.61-1.5-.46-2.22-.71-1.53-.53-2.27-.84a42.67,42.67,0,0,1-4.26-2A4.11,4.11,0,0,1,53,432.4V421.81Z"/><path class="cls-8" d="M135,421.81a5.4,5.4,0,0,1-1.85,3.93A12.1,12.1,0,0,1,131,427.3a19.31,19.31,0,0,1-2.23,1.11c-.66.28-1.36.55-2.1.8s-1.45.47-2.22.7-1.38.37-2.11.53-1.47.34-2.22.49-1.38.27-2.09.39-1.47.25-2.23.35-1.4.21-2.1.28-1.48.2-2.22.28-1.41.15-2.11.21-1.5.14-2.22.19l-2.09.15c-.77.06-1.52.11-2.23.14s-1.43.09-2.1.11l-2.23.08c-.78,0-1.48,0-2.1.06H92.13l-2.23-.05-2.1-.06L85.57,433l-2.1-.12-2.22-.15-2.09-.18c-.75-.06-1.49-.13-2.23-.22s-1.41-.15-2.1-.24l-2.23-.29c-10-1.43-19.64-4.27-19.64-9.94,0-11,36.81-11.35,41-11.35S135,410.77,135,421.81Z"/><path class="cls-7" d="M132,421.82c0,4.64-17,9.88-38.05,9.88s-38-5.24-38-9.88,17-9.88,38-9.88S132,417.18,132,421.82Z"/><path class="cls-11" d="M94,411.94c-21,0-38,5.24-38,9.88a3.64,3.64,0,0,0,1.72,2.64,2.3,2.3,0,0,1-.36-1.16c0-4.47,16.39-9.51,36.62-9.51s36.63,5,36.63,9.51a2.34,2.34,0,0,1-.47,1.33c1.26-.93,2-1.88,2-2.81C132,417.18,115,411.94,94,411.94Z"/><path class="cls-8" d="M59.59,428.59v9.34c.74.31,1.5.59,2.27.84v-9.35C61.06,429.16,60.31,428.88,59.59,428.59Z"/><path class="cls-8" d="M55.06,426v9.83l.27.16c.64.34,1.29.67,2,1V427.5A13,13,0,0,1,55.06,426Z"/><path class="cls-8" d="M64.08,430.07v9.41c.73.23,1.47.43,2.22.61v-9.48C65.54,430.44,64.81,430.26,64.08,430.07Z"/><path class="cls-8" d="M68.41,431.05v9.54c.73.17,1.47.33,2.22.46v-9.61Q69.51,431.26,68.41,431.05Z"/><path class="cls-8" d="M74.83,432v9.68c-.76-.09-1.5-.19-2.23-.32v-9.65Z"/><path class="cls-11" d="M79.16,432.5v9.73c-.76-.06-1.5-.14-2.23-.24v-9.71C77.67,432.37,78.41,432.44,79.16,432.5Z"/><path class="cls-11" d="M83.47,432.83v9.72c-.76,0-1.5-.09-2.22-.15v-9.72Z"/><path class="cls-11" d="M87.8,433.06v9.67c-.76,0-1.5,0-2.23-.07V433Z"/><path class="cls-11" d="M92.13,433.17v9.63c-.74,0-1.49,0-2.23,0v-9.67Z"/><path class="cls-11" d="M96.44,433.17v9.62h-1c-.41,0-.83,0-1.24,0v-9.64Z"/><path class="cls-11" d="M100.77,433v9.6l-2.23.1v-9.62Z"/><path class="cls-11" d="M105.1,432.78v9.53c-.73.08-1.49.14-2.23.18v-9.57C103.58,432.89,104.33,432.84,105.1,432.78Z"/><path class="cls-11" d="M109.41,432.44v9.41l-2.22.26v-9.48C107.91,432.58,108.67,432.52,109.41,432.44Z"/><path class="cls-11" d="M113.74,432v9.27l-2.22.35v-9.34C112.26,432.15,113,432.06,113.74,432Z"/><path class="cls-11" d="M118.07,431.32v9.1l-2.23.43v-9.18C116.6,431.57,117.34,431.45,118.07,431.32Z"/><path class="cls-9" d="M122.38,430.44v8.95c-.73.2-1.47.37-2.22.55v-9C120.91,430.78,121.65,430.62,122.38,430.44Z"/><path class="cls-9" d="M126.71,429.21v8.89c-.71.26-1.45.48-2.22.72v-8.91C125.26,429.68,126,429.46,126.71,429.21Z"/><path class="cls-9" d="M131,427.3v9.08a23.36,23.36,0,0,1-2.23.95v-8.92A19.31,19.31,0,0,0,131,427.3Z"/><path class="cls-9" d="M135,421.81v10.13a4,4,0,0,1-1.85,3.26v-9.46A5.4,5.4,0,0,0,135,421.81Z"/><path class="cls-7" d="M134.4,408.09v10.12c0,1.78-1.25,3-2.82,3.89-7.06,3.78-21.72,6.82-36.7,7-13.24.15-24.54-.88-33.61-4-.77-.26-1.52-.54-2.27-.85a42.45,42.45,0,0,1-4.25-2,4.11,4.11,0,0,1-2.37-3.55V408.09Z"/><path class="cls-7" d="M134.4,408.09v10.12c0,1.78-1.25,3-2.82,3.89-7.06,3.78-21.72,6.82-36.7,7a127.5,127.5,0,0,1-24.83-1.75c-.76-.13-1.5-.3-2.23-.46s-1.4-.33-2.1-.5-1.5-.39-2.22-.61-1.5-.46-2.23-.71-1.52-.54-2.27-.85a42.45,42.45,0,0,1-4.25-2,4.11,4.11,0,0,1-2.37-3.55V408.09Z"/><path class="cls-7" d="M134.4,408.09v10.12a4,4,0,0,1-1.86,3.26,5.68,5.68,0,0,1-1,.63c-.36.19-.73.38-1.13.56-.68.33-1.42.65-2.22.95s-1.36.53-2.11.77-1.45.47-2.22.71l-2.1.58-2.23.55-2.09.47c-.72.15-1.47.3-2.22.43s-1.39.25-2.11.37l-2.22.36-2.1.28c-.73.09-1.47.18-2.23.25s-1.38.15-2.09.21-1.48.13-2.22.18-1.39.1-2.11.13S98.7,429,98,429s-1.39.05-2.11.06l-1,0H91.54c-.74,0-1.48,0-2.22,0s-1.41,0-2.11-.06-1.49,0-2.22-.07-1.41-.06-2.11-.1-1.49-.09-2.22-.15-1.39-.11-2.09-.18-1.5-.13-2.22-.24-1.41-.14-2.11-.26-1.49-.2-2.22-.33-1.32-.22-2-.34-1.5-.3-2.23-.46-1.4-.33-2.1-.5-1.5-.39-2.22-.61-1.5-.46-2.23-.71-1.52-.54-2.27-.85a42.45,42.45,0,0,1-4.25-2,4.11,4.11,0,0,1-2.37-3.55V408.09Z"/><path class="cls-8" d="M134.4,408.09a5.41,5.41,0,0,1-1.86,3.93,12.07,12.07,0,0,1-2.09,1.55,20.89,20.89,0,0,1-2.22,1.12c-.67.28-1.36.54-2.11.8s-1.45.47-2.22.69-1.38.37-2.1.54-1.47.34-2.23.49l-2.09.38c-.72.13-1.47.25-2.22.36s-1.41.2-2.11.28l-2.22.28-2.1.21-2.23.19-2.09.15c-.77.06-1.51.1-2.22.13l-2.11.12-2.22.07-2.11.06c-1,0-1.73,0-2.22,0h-.24c-.37,0-1,0-1.85,0l-2.22,0c-.65,0-1.35,0-2.11-.06L85,419.22l-2.11-.12L80.66,419l-2.09-.17c-.74-.06-1.48-.14-2.22-.23s-1.41-.14-2.11-.23-1.48-.2-2.22-.3c-10-1.42-19.64-4.27-19.64-9.93,0-11,36.8-11.36,41-11.36S134.4,397.05,134.4,408.09Z"/><path class="cls-7" d="M131.44,408.09c0,4.64-17,9.89-38,9.89s-38-5.25-38-9.89,17-9.88,38.05-9.88S131.44,403.45,131.44,408.09Z"/><path class="cls-11" d="M93.39,398.21c-21,0-38,5.24-38,9.88a3.67,3.67,0,0,0,1.73,2.65,2.23,2.23,0,0,1-.37-1.16c0-4.47,16.4-9.52,36.63-9.52S130,405.11,130,409.58a2.37,2.37,0,0,1-.46,1.32c1.25-.93,1.95-1.88,1.95-2.81C131.44,403.45,114.4,398.21,93.39,398.21Z"/><path class="cls-8" d="M59,414.86v9.34c.75.31,1.5.59,2.27.85v-9.36C60.48,415.44,59.72,415.16,59,414.86Z"/><path class="cls-8" d="M54.48,412.22v9.83l.27.17c.63.34,1.29.66,2,1v-9.43A11.91,11.91,0,0,1,54.48,412.22Z"/><path class="cls-8" d="M63.5,416.34v9.42c.72.22,1.46.43,2.22.61v-9.48C65,416.72,64.22,416.54,63.5,416.34Z"/><path class="cls-8" d="M67.82,417.33v9.54c.73.16,1.47.33,2.23.46v-9.61C69.3,417.59,68.56,417.47,67.82,417.33Z"/><path class="cls-8" d="M74.24,418.32V428q-1.12-.13-2.22-.33V418C72.76,418.12,73.5,418.23,74.24,418.32Z"/><path class="cls-11" d="M78.57,418.78v9.72c-.76-.06-1.5-.13-2.22-.24v-9.71C77.09,418.64,77.83,418.72,78.57,418.78Z"/><path class="cls-11" d="M82.88,419.1v9.73c-.75,0-1.49-.09-2.22-.15V419Z"/><path class="cls-11" d="M87.21,419.34V429c-.75,0-1.49,0-2.22-.07v-9.71Z"/><path class="cls-11" d="M91.54,419.44v9.64c-.74,0-1.48,0-2.22,0V419.4Z"/><path class="cls-11" d="M95.85,419.44v9.62l-1,0H93.63v-9.63C94.12,419.46,94.88,419.46,95.85,419.44Z"/><path class="cls-11" d="M100.18,419.31v9.59c-.74.05-1.48.07-2.22.1v-9.62Z"/><path class="cls-11" d="M104.51,419.06v9.53c-.72.07-1.48.13-2.22.18v-9.58C103,419.16,103.74,419.12,104.51,419.06Z"/><path class="cls-11" d="M108.83,418.72v9.41c-.73.09-1.47.18-2.23.25v-9.47Z"/><path class="cls-11" d="M113.15,418.23v9.26l-2.22.36v-9.34Z"/><path class="cls-11" d="M117.48,417.59v9.1c-.72.15-1.47.3-2.22.43V418C116,417.84,116.76,417.72,117.48,417.59Z"/><path class="cls-9" d="M121.8,416.72v8.95l-2.23.55v-9C120.33,417.06,121.07,416.89,121.8,416.72Z"/><path class="cls-9" d="M126.12,415.49v8.89c-.71.25-1.45.47-2.22.71v-8.91C124.67,416,125.41,415.74,126.12,415.49Z"/><path class="cls-9" d="M130.45,413.57v9.09c-.68.33-1.42.65-2.22.95v-8.92A20.89,20.89,0,0,0,130.45,413.57Z"/><path class="cls-9" d="M134.4,408.09v10.12a4,4,0,0,1-1.86,3.26V412A5.41,5.41,0,0,0,134.4,408.09Z"/><path class="cls-7" d="M178.67,387.18V397.3c0,1.78-1.25,3-2.82,3.88-7.06,3.78-21.72,6.82-36.7,7-13.24.14-24.54-.88-33.61-4-.77-.25-1.52-.53-2.27-.84a40.38,40.38,0,0,1-4.25-2,4.09,4.09,0,0,1-2.37-3.54V387.18Z"/><path class="cls-7" d="M178.67,387.18V397.3c0,1.78-1.25,3-2.82,3.88-7.06,3.78-21.72,6.82-36.7,7a127.5,127.5,0,0,1-24.83-1.75c-.76-.14-1.5-.3-2.23-.46s-1.4-.33-2.1-.51-1.5-.38-2.22-.6-1.5-.46-2.23-.72-1.52-.53-2.27-.84a40.38,40.38,0,0,1-4.25-2,4.09,4.09,0,0,1-2.37-3.54V387.18Z"/><path class="cls-7" d="M178.67,387.18V397.3a4,4,0,0,1-1.86,3.26,5.08,5.08,0,0,1-1,.62c-.36.2-.73.39-1.13.57-.68.32-1.42.65-2.22.95s-1.36.53-2.11.77-1.45.47-2.22.71l-2.1.58c-.73.19-1.47.37-2.23.54s-1.38.32-2.09.48-1.47.3-2.22.43l-2.11.37-2.22.36c-.7.08-1.39.19-2.1.28s-1.47.18-2.23.25-1.38.15-2.09.21-1.48.13-2.22.17-1.4.11-2.11.14l-2.22.1c-.7,0-1.39.05-2.11.06l-1,0h-3.34c-.74,0-1.48,0-2.22,0s-1.41,0-2.11-.06-1.49,0-2.22-.07-1.41-.06-2.11-.11-1.49-.09-2.22-.14-1.39-.11-2.09-.18-1.5-.14-2.22-.24-1.41-.15-2.11-.27-1.49-.19-2.22-.32l-2-.34c-.76-.14-1.5-.3-2.23-.46s-1.4-.33-2.1-.51-1.5-.38-2.22-.6-1.5-.46-2.23-.72-1.52-.53-2.27-.84a40.38,40.38,0,0,1-4.25-2,4.09,4.09,0,0,1-2.37-3.54V387.18Z"/><path class="cls-8" d="M178.67,387.18a5.39,5.39,0,0,1-1.86,3.92,11.61,11.61,0,0,1-2.09,1.56,19.14,19.14,0,0,1-2.22,1.11c-.67.28-1.36.55-2.11.8s-1.45.48-2.22.7-1.38.37-2.1.53-1.47.34-2.23.49-1.38.27-2.09.39-1.47.25-2.22.35-1.41.21-2.11.28-1.48.2-2.22.29l-2.1.2c-.75.08-1.5.14-2.23.2l-2.09.15c-.77.05-1.51.1-2.22.13l-2.11.12-2.22.07-2.11.06c-1,0-1.73,0-2.22,0h-.24c-.37,0-1,0-1.85,0l-2.22,0c-.65,0-1.35-.05-2.11-.06s-1.45-.08-2.22-.12l-2.11-.12-2.22-.15-2.09-.18c-.74-.06-1.48-.13-2.22-.22s-1.41-.15-2.11-.24l-2.22-.29c-10-1.43-19.64-4.27-19.64-9.93,0-11.05,36.8-11.36,41-11.36S178.67,376.13,178.67,387.18Z"/><path class="cls-7" d="M175.71,387.18c0,4.64-17,9.88-38.05,9.88s-38-5.24-38-9.88,17-9.88,38.05-9.88S175.71,382.54,175.71,387.18Z"/><path class="cls-11" d="M137.66,377.3c-21,0-38,5.24-38,9.88a3.65,3.65,0,0,0,1.73,2.64,2.17,2.17,0,0,1-.37-1.16c0-4.46,16.4-9.51,36.63-9.51s36.62,5.05,36.62,9.51a2.38,2.38,0,0,1-.46,1.33c1.25-.93,2-1.88,2-2.81C175.71,382.54,158.67,377.3,137.66,377.3Z"/><path class="cls-8" d="M103.27,394v9.34c.75.31,1.5.59,2.27.84v-9.35C104.75,394.52,104,394.25,103.27,394Z"/><path class="cls-8" d="M98.75,391.31v9.83l.27.16c.63.34,1.29.67,2,1v-9.42A12.41,12.41,0,0,1,98.75,391.31Z"/><path class="cls-8" d="M107.77,395.43v9.42c.72.22,1.46.43,2.22.6V396C109.23,395.81,108.49,395.62,107.77,395.43Z"/><path class="cls-8" d="M112.09,396.41V406c.73.16,1.47.32,2.23.46V396.8C113.57,396.68,112.83,396.55,112.09,396.41Z"/><path class="cls-8" d="M118.51,397.4v9.68c-.75-.09-1.49-.19-2.22-.32v-9.65Z"/><path class="cls-11" d="M122.84,397.86v9.73q-1.14-.09-2.22-.24v-9.71C121.36,397.73,122.1,397.8,122.84,397.86Z"/><path class="cls-11" d="M127.15,398.19v9.72c-.75,0-1.49-.09-2.22-.14V398Z"/><path class="cls-11" d="M131.48,398.43v9.66c-.75,0-1.49,0-2.22-.07v-9.71C130,398.35,130.79,398.38,131.48,398.43Z"/><path class="cls-11" d="M135.81,398.53v9.64c-.74,0-1.48,0-2.22,0v-9.66Z"/><path class="cls-11" d="M140.12,398.53v9.62l-1,0H137.9v-9.63C138.39,398.55,139.15,398.55,140.12,398.53Z"/><path class="cls-11" d="M144.45,398.4V408l-2.22.1v-9.62Z"/><path class="cls-11" d="M148.78,398.15v9.53c-.72.07-1.48.13-2.22.17v-9.57C147.27,398.25,148,398.2,148.78,398.15Z"/><path class="cls-11" d="M153.1,397.8v9.42c-.73.09-1.47.18-2.23.25V398C151.6,397.94,152.35,397.88,153.1,397.8Z"/><path class="cls-11" d="M157.42,397.31v9.27l-2.22.36V397.6C155.94,397.51,156.68,397.42,157.42,397.31Z"/><path class="cls-11" d="M161.75,396.68v9.1c-.72.15-1.47.3-2.22.43V397C160.28,396.93,161,396.81,161.75,396.68Z"/><path class="cls-9" d="M166.07,395.8v9c-.73.19-1.47.37-2.23.54v-9C164.6,396.14,165.34,396,166.07,395.8Z"/><path class="cls-9" d="M170.39,394.57v8.9c-.71.25-1.45.47-2.22.71v-8.91C168.94,395.05,169.68,394.82,170.39,394.57Z"/><path class="cls-9" d="M174.72,392.66v9.09c-.68.32-1.42.65-2.22.95v-8.93A19.14,19.14,0,0,0,174.72,392.66Z"/><path class="cls-9" d="M178.67,387.18V397.3a4,4,0,0,1-1.86,3.26V391.1A5.39,5.39,0,0,0,178.67,387.18Z"/><path class="cls-7" d="M178.08,373.45v10.13c0,1.77-1.24,3-2.82,3.88-7,3.78-21.71,6.82-36.7,7-13.24.15-24.53-.87-33.6-4-.77-.25-1.53-.53-2.27-.85a42.63,42.63,0,0,1-4.26-2A4.11,4.11,0,0,1,96.06,384V373.45Z"/><path class="cls-7" d="M178.08,373.45v10.13c0,1.77-1.24,3-2.82,3.88-7,3.78-21.71,6.82-36.7,7a127.56,127.56,0,0,1-24.83-1.75c-.75-.13-1.49-.29-2.22-.46s-1.41-.32-2.11-.5-1.49-.39-2.22-.61-1.5-.46-2.22-.71-1.53-.53-2.27-.85a42.63,42.63,0,0,1-4.26-2A4.11,4.11,0,0,1,96.06,384V373.45Z"/><path class="cls-7" d="M178.08,373.45v10.13a4,4,0,0,1-1.85,3.26,6.41,6.41,0,0,1-1,.62c-.35.19-.72.38-1.12.56-.68.33-1.43.65-2.23,1s-1.36.53-2.1.77-1.45.48-2.22.71-1.38.39-2.11.58l-2.22.55-2.09.47c-.73.15-1.47.3-2.23.43s-1.39.26-2.1.37l-2.22.36-2.11.28c-.73.09-1.47.18-2.22.25s-1.38.15-2.09.21-1.49.14-2.23.18-1.39.1-2.1.13-1.48.08-2.23.11-1.39,0-2.1.06h-1c-.41,0-.83,0-1.24,0-.7,0-1.4,0-2.09,0s-1.49,0-2.23,0-1.41,0-2.1-.06-1.5,0-2.23-.08-1.4-.06-2.1-.1-1.5-.09-2.22-.15-1.4-.1-2.09-.18-1.5-.13-2.23-.23-1.41-.15-2.1-.27-1.5-.19-2.23-.33-1.32-.22-2-.34-1.49-.29-2.22-.46-1.41-.32-2.11-.5-1.49-.39-2.22-.61-1.5-.46-2.22-.71-1.53-.53-2.27-.85a42.63,42.63,0,0,1-4.26-2A4.11,4.11,0,0,1,96.06,384V373.45Z"/><path class="cls-8" d="M178.08,373.45a5.4,5.4,0,0,1-1.85,3.93,12.1,12.1,0,0,1-2.09,1.56,19.31,19.31,0,0,1-2.23,1.11c-.66.28-1.36.55-2.1.8s-1.45.47-2.22.69-1.38.38-2.11.54-1.47.34-2.22.49l-2.09.38c-.73.14-1.47.25-2.23.36s-1.4.21-2.1.28l-2.22.28c-.7.08-1.41.15-2.11.21l-2.22.19-2.09.15c-.77.06-1.52.1-2.23.13l-2.1.12-2.23.08c-.78,0-1.48,0-2.1.06h-4.31l-2.23-.05-2.1-.06-2.23-.12-2.1-.11-2.22-.15-2.09-.18c-.75-.06-1.49-.13-2.23-.22s-1.41-.15-2.1-.24-1.49-.19-2.23-.3c-10-1.42-19.64-4.27-19.64-9.93,0-11,36.81-11.35,41-11.35S178.08,362.41,178.08,373.45Z"/><path class="cls-7" d="M175.12,373.46c0,4.64-17,9.88-38.05,9.88s-38-5.24-38-9.88,17-9.89,38-9.89S175.12,368.82,175.12,373.46Z"/><path class="cls-11" d="M137.07,363.57c-21,0-38,5.25-38,9.89a3.65,3.65,0,0,0,1.72,2.64,2.3,2.3,0,0,1-.36-1.16c0-4.47,16.39-9.52,36.62-9.52s36.63,5.05,36.63,9.52a2.29,2.29,0,0,1-.47,1.32c1.26-.92,2-1.88,2-2.8C175.12,368.82,158.09,363.57,137.07,363.57Z"/><path class="cls-8" d="M102.69,380.23v9.33c.74.32,1.5.6,2.27.85v-9.35C104.16,380.8,103.41,380.52,102.69,380.23Z"/><path class="cls-8" d="M98.16,377.58v9.83l.27.17c.64.34,1.29.66,2,1v-9.42A12.53,12.53,0,0,1,98.16,377.58Z"/><path class="cls-8" d="M107.18,381.7v9.42c.73.22,1.47.43,2.22.61v-9.48C108.64,382.08,107.9,381.9,107.18,381.7Z"/><path class="cls-8" d="M111.51,382.69v9.54c.73.17,1.47.33,2.22.46v-9.61Q112.61,382.9,111.51,382.69Z"/><path class="cls-8" d="M117.93,383.68v9.68c-.76-.09-1.5-.19-2.23-.33v-9.65C116.44,383.49,117.19,383.59,117.93,383.68Z"/><path class="cls-11" d="M122.26,384.14v9.72c-.76-.06-1.5-.13-2.23-.23v-9.71C120.77,384,121.51,384.08,122.26,384.14Z"/><path class="cls-11" d="M126.57,384.47v9.72c-.76,0-1.5-.09-2.22-.15v-9.72Z"/><path class="cls-11" d="M130.9,384.7v9.67c-.76,0-1.5,0-2.23-.08v-9.71Z"/><path class="cls-11" d="M135.23,384.81v9.63c-.74,0-1.49,0-2.23,0v-9.67Z"/><path class="cls-11" d="M139.54,384.81v9.62h-1c-.41,0-.83,0-1.24,0v-9.64Z"/><path class="cls-11" d="M143.87,384.67v9.59c-.74.05-1.48.08-2.23.11v-9.62Z"/><path class="cls-11" d="M148.2,384.42V394c-.73.08-1.49.14-2.23.18v-9.58C146.68,384.52,147.43,384.48,148.2,384.42Z"/><path class="cls-11" d="M152.51,384.08v9.41c-.73.09-1.47.18-2.22.25v-9.47Z"/><path class="cls-11" d="M156.84,383.59v9.26l-2.22.36v-9.34Z"/><path class="cls-11" d="M161.17,383v9.1c-.73.15-1.47.3-2.23.43v-9.17C159.7,383.2,160.44,383.09,161.17,383Z"/><path class="cls-9" d="M165.48,382.08V391l-2.22.55v-9C164,382.42,164.75,382.26,165.48,382.08Z"/><path class="cls-9" d="M169.81,380.85v8.89c-.71.25-1.45.48-2.22.71v-8.91C168.36,381.32,169.1,381.1,169.81,380.85Z"/><path class="cls-9" d="M174.14,378.94V388c-.68.33-1.43.65-2.23,1v-8.92A19.31,19.31,0,0,0,174.14,378.94Z"/><path class="cls-9" d="M178.08,373.45v10.13a4,4,0,0,1-1.85,3.26v-9.46A5.4,5.4,0,0,0,178.08,373.45Z"/><path class="cls-12" d="M191.63,261.3H552.86a11.26,11.26,0,0,1,11.26,11.26V466.52a6,6,0,0,1-6,6H186.37a6,6,0,0,1-6-6V272.57A11.26,11.26,0,0,1,191.63,261.3Z"/><rect class="cls-13" x="189.3" y="288.29" width="172.66" height="174.43"/><rect class="cls-13" x="380.97" y="288.29" width="173.19" height="174.43"/><polygon class="cls-14" points="183.98 272.39 183.97 268.23 188.12 268.23 188.12 269.9 185.63 269.9 185.64 272.39 183.98 272.39"/><path class="cls-14" d="M184.5,457.05l0-6.59h1.66l0,6.6Zm0-13.19,0-6.59h1.66l0,6.6Zm0-13.19,0-6.59h1.66l0,6.6Zm0-13.19,0-6.59H186l0,6.6Zm0-13.19,0-6.59H186l0,6.6Zm0-13.19,0-6.59H186l0,6.6Zm0-13.19v-6.59h1.66l0,6.6Zm0-13.19,0-6.59h1.66l0,6.6Zm0-13.19,0-6.59h1.66l0,6.6Zm0-13.19v-6.59h1.66v6.6Zm0-13.19,0-6.59h1.66l0,6.6Zm0-13.19,0-6.59h1.66l0,6.6Zm0-13.19,0-6.59h1.67v6.6Zm0-13.19,0-6.59h1.66l0,6.6Z"/><polygon class="cls-14" points="188.68 467.81 184.53 467.8 184.51 463.65 186.18 463.64 186.18 466.14 188.68 466.14 188.68 467.81"/><path class="cls-14" d="M547.51,468.34h-6.65v-1.66h6.65Zm-13.29,0h-6.65v-1.66h6.65Zm-13.29,0h-6.65v-1.66h6.65Zm-13.29,0H501v-1.66h6.65Zm-13.29,0H487.7v-1.66h6.65Zm-13.29,0h-6.65v-1.66h6.65Zm-13.29,0h-6.65v-1.66h6.65Zm-13.29,0h-6.65v-1.66h6.65Zm-13.29,0h-6.65v-1.66h6.65Zm-13.29,0h-6.65v-1.66h6.65Zm-13.29,0H408v-1.67h6.65Zm-13.29,0h-6.65v-1.67h6.65Zm-13.29,0h-6.65v-1.67H388Zm-13.29,0h-6.65v-1.67h6.65Zm-13.29,0H354.8v-1.67h6.65Zm-13.29,0h-6.65v-1.67h6.65Zm-13.29,0h-6.65v-1.67h6.65Zm-13.29,0h-6.65v-1.67h6.65Zm-13.29,0h-6.65v-1.67h6.65ZM295,468h-6.65v-1.67H295Zm-13.29,0h-6.65v-1.67h6.65Zm-13.29,0h-6.65v-1.67h6.65Zm-13.29,0h-6.65v-1.67h6.65Zm-13.29,0h-6.65v-1.67h6.65Zm-13.29,0H221.9v-1.67h6.65Zm-13.29,0h-6.65v-1.67h6.65Zm-13.29,0h-6.65v-1.67H202Z"/><polygon class="cls-14" points="558.3 468.36 554.15 468.35 554.15 466.69 556.65 466.69 556.67 464.19 558.33 464.21 558.3 468.36"/><path class="cls-14" d="M558.39,457.59h-1.66l0-6.61h1.66Zm.11-13.23h-1.66l0-6.61h1.66Zm.11-13.22-1.66,0,0-6.61h1.66Zm.11-13.23-1.66,0,.05-6.61h1.67Zm.11-13.23h-1.66l.05-6.62,1.67,0Zm.11-13.23h-1.66l.06-6.62,1.66,0Zm.11-13.23h-1.66l.06-6.61h1.66Zm.11-13.22-1.66,0,.06-6.61h1.66Zm.11-13.23-1.66,0,.06-6.61h1.66Zm.11-13.23h-1.66l.06-6.62,1.66,0Zm.12-13.23h-1.67l.06-6.62,1.66,0Zm.11-13.23h-1.67l.06-6.61h1.66Zm.11-13.22-1.66,0,.05-6.61h1.66Zm.11-13.23-1.66,0,.05-6.61h1.66Z"/><polygon class="cls-14" points="559.94 272.4 558.28 272.38 558.3 269.9 555.81 269.9 555.81 268.23 559.97 268.23 559.94 272.4"/><path class="cls-14" d="M549.13,269.9h-6.69v-1.67h6.69Zm-13.37,0h-6.69v-1.67h6.69Zm-13.37,0H515.7v-1.67h6.69Zm-13.37,0h-6.69v-1.67H509Zm-13.37,0H489v-1.67h6.69Zm-13.37,0h-6.69v-1.67h6.69Zm-13.38,0h-6.68v-1.67h6.68Zm-13.37,0h-6.68v-1.67h6.68Zm-13.37,0h-6.68v-1.67h6.68Zm-13.37,0h-6.68v-1.67h6.68Zm-13.37,0h-6.68v-1.67h6.68Zm-13.37,0h-6.68v-1.67h6.68Zm-13.37,0H382v-1.67h6.68Zm-13.37,0h-6.68v-1.67h6.68Zm-13.37,0h-6.68v-1.67h6.68Zm-13.37,0h-6.69v-1.67h6.69Zm-13.37,0h-6.69v-1.67h6.69Zm-13.37,0h-6.69v-1.67h6.69Zm-13.37,0h-6.69v-1.67h6.69Zm-13.37,0H288.4v-1.67h6.69Zm-13.37,0H275v-1.67h6.69Zm-13.37,0h-6.69v-1.67h6.69Zm-13.37,0h-6.69v-1.67H255Zm-13.37,0h-6.69v-1.67h6.69Zm-13.38,0h-6.68v-1.67h6.68Zm-13.37,0h-6.68v-1.67h6.68Zm-13.37,0h-6.68v-1.67h6.68Z"/><rect class="cls-15" x="189.23" y="275.16" width="365.47" height="13.3"/><rect class="cls-16" x="192.55" y="279.04" width="358.83" height="4.99"/><rect class="cls-15" x="193.66" y="391.3" width="163.36" height="4.43"/><rect class="cls-14" x="194.92" y="398.11" width="1.66" height="3.58" transform="translate(-204.82 594.28) rotate(-89.8)"/><path class="cls-14" d="M345.16,401.24l-7.38,0v-1.67l7.38,0Zm-14.76-.05-7.38,0V399.5l7.38,0Zm-14.76-.05-7.39,0v-1.67l7.38,0Zm-14.77-.05-7.38,0V399.4l7.38,0Zm-14.76,0-7.38,0v-1.67l7.39,0ZM271.35,401,264,401V399.3l7.38,0Zm-14.77-.05-7.38,0v-1.66l7.38,0Zm-14.76-.05-7.38,0V399.2l7.38,0Zm-14.76-.05-7.38,0v-1.66l7.38,0Zm-14.76,0-7.39,0V399.1l7.38,0Z"/><rect class="cls-14" x="353.5" y="398.65" width="1.66" height="3.58" transform="translate(-47.31 753.41) rotate(-89.8)"/><rect class="cls-15" x="193.66" y="333.09" width="163.36" height="4.43"/><rect class="cls-14" x="194.92" y="339.9" width="1.66" height="3.58" transform="translate(-146.61 536.27) rotate(-89.8)"/><path class="cls-14" d="M345.16,343l-7.38,0v-1.66l7.38,0Zm-14.76,0L323,343V341.3l7.38,0Zm-14.76-.05-7.39,0v-1.66l7.38,0Zm-14.77-.05-7.38,0V341.2l7.38,0Zm-14.76-.05-7.38,0v-1.67l7.39,0Zm-14.76-.05-7.38,0v-1.67l7.38,0Zm-14.77,0-7.38,0V341l7.38,0Zm-14.76-.05-7.38,0V341l7.38,0Zm-14.76-.05-7.38,0v-1.67l7.38,0Zm-14.76-.05-7.39,0v-1.67l7.38,0Z"/><rect class="cls-14" x="353.5" y="340.45" width="1.66" height="3.58" transform="translate(10.9 695.41) rotate(-89.81)"/><path class="cls-12" d="M548.06,331.71V448.4a7.47,7.47,0,0,1-7.48,7.48H395.5A7.47,7.47,0,0,1,388,448.4V331.71Z"/><rect class="cls-17" x="432.39" y="364.14" width="6.49" height="1.66"/><rect class="cls-17" x="419.42" y="364.14" width="6.49" height="1.66"/><rect class="cls-17" x="445.36" y="364.14" width="6.49" height="1.66"/><path class="cls-17" d="M388,349.56a34.28,34.28,0,0,0,2.21,2.91l1.27-1.07a33.34,33.34,0,0,1-3.48-5Z"/><rect class="cls-17" x="458.33" y="364.14" width="6.49" height="1.66"/><path class="cls-17" d="M406.41,363.67a36.51,36.51,0,0,0,6.42,1.66l.26-1.64A34.88,34.88,0,0,1,407,362.1Z"/><path class="cls-17" d="M395,357.14a37.86,37.86,0,0,0,5.44,3.76l.83-1.44a36.83,36.83,0,0,1-5.21-3.6Z"/><path class="cls-17" d="M548.06,346.43a33.25,33.25,0,0,1-3.46,4.94l1.27,1.07a33.61,33.61,0,0,0,2.19-2.88Z"/><path class="cls-17" d="M534.9,359.44l.83,1.45a38,38,0,0,0,5.44-3.78l-1.06-1.28A36.08,36.08,0,0,1,534.9,359.44Z"/><path class="cls-17" d="M523,363.69l.27,1.64a37.1,37.1,0,0,0,6.41-1.67l-.56-1.57A34.91,34.91,0,0,1,523,363.69Z"/><rect class="cls-17" x="471.3" y="364.14" width="6.49" height="1.66"/><rect class="cls-17" x="484.28" y="364.14" width="6.49" height="1.66"/><rect class="cls-17" x="510.22" y="364.14" width="6.49" height="1.66"/><rect class="cls-17" x="497.25" y="364.14" width="6.49" height="1.66"/><path class="cls-16" d="M547.49,331.71H388.6c0,.33,0,.68,0,1,0,15.6,14.4,28.37,29.9,28.37H517.6c15.51,0,29.91-12.77,29.91-28.37C547.51,332.39,547.5,332,547.49,331.71Z"/><path class="cls-12" d="M547.49,332.26H388.6c0-.33,0-.68,0-1,0-15.6,14.4-28.37,29.9-28.37H517.6c15.51,0,29.91,12.77,29.91,28.37C547.51,331.58,547.5,331.93,547.49,332.26Z"/><ellipse class="cls-18" cx="468.6" cy="395.18" rx="10.26" ry="10.24" transform="translate(72.9 863.34) rotate(-89.94)"/><path class="cls-19" d="M541.78,291.36l-.62,27.23-25,12.84s-14.54.4-13.85,13.08l15.49-6,32-12.54,2.16-36Z"/><g class="cls-20"><path class="cls-7" d="M503.24,374.43a28.31,28.31,0,1,1,28.38-28.31A28.38,28.38,0,0,1,503.24,374.43Z"/><path class="cls-7" d="M503.24,374.43a28.31,28.31,0,1,1,28.38-28.31A28.38,28.38,0,0,1,503.24,374.43Z"/><ellipse class="cls-7" cx="503.16" cy="346.12" rx="32.43" ry="32.36"/><path class="cls-21" d="M503.24,374.43a28.31,28.31,0,1,1,28.38-28.31A28.38,28.38,0,0,1,503.24,374.43Z"/><path class="cls-8" d="M504.68,373.09a28.28,28.28,0,0,1-20.12-48.26,28.33,28.33,0,1,0,38.8,41.24A28.29,28.29,0,0,1,504.68,373.09Z"/><path class="cls-9" d="M503.24,317.81a28.32,28.32,0,0,0-18.59,6.94A28.32,28.32,0,0,1,519.94,369a28.28,28.28,0,0,0-16.7-51.18Z"/></g><g class="cls-22"><rect class="cls-23" x="196.01" y="294.35" width="157.92" height="111.01" rx="13.33"/><rect class="cls-24" x="204.4" y="308.68" width="47" height="4.3"/><rect class="cls-24" x="258.11" y="308.68" width="47" height="4.3"/><rect class="cls-24" x="208.22" y="376.71" width="61.24" height="4.3"/><rect class="cls-24" x="278.2" y="376.71" width="61.24" height="4.3"/><path class="cls-24" d="M333,326.58a1.13,1.13,0,0,1-.82-.34,1,1,0,0,1,.07-1.47,13.61,13.61,0,0,0,0-21.36,1,1,0,0,1-.06-1.47,1.15,1.15,0,0,1,1.56-.06,15.6,15.6,0,0,1,0,24.43A1.19,1.19,0,0,1,333,326.58Z"/><path class="cls-24" d="M329.82,323.83a1.16,1.16,0,0,1-.82-.33,1,1,0,0,1,.07-1.47,10.11,10.11,0,0,0,0-15.87,1,1,0,0,1-.07-1.47,1.16,1.16,0,0,1,1.57-.07,12.11,12.11,0,0,1,0,18.94A1.19,1.19,0,0,1,329.82,323.83Z"/><path class="cls-24" d="M326.62,321.09a1.17,1.17,0,0,1-.82-.34,1,1,0,0,1,.07-1.47,6.62,6.62,0,0,0,0-10.38,1,1,0,0,1-.07-1.46,1.14,1.14,0,0,1,1.56-.07,8.6,8.6,0,0,1,0,13.44A1.13,1.13,0,0,1,326.62,321.09Z"/><path class="cls-24" d="M323.42,318.34a1.13,1.13,0,0,1-.82-.34,1,1,0,0,1,.07-1.47,3.1,3.1,0,0,0,0-4.88,1,1,0,0,1-.07-1.47,1.17,1.17,0,0,1,1.57-.06,5.09,5.09,0,0,1,0,7.95A1.15,1.15,0,0,1,323.42,318.34Z"/><rect class="cls-24" x="204.4" y="317.27" width="100.71" height="4.3"/><rect class="cls-24" x="208.22" y="353.79" width="131.99" height="4.3"/><rect class="cls-24" x="208.22" y="365.25" width="131.99" height="4.3"/></g><g class="cls-25"><rect class="cls-26" x="290.89" y="94.8" width="164.23" height="338.74" transform="translate(98.4 629.56) rotate(-88.38)"/><rect class="cls-27" x="299.3" y="103.2" width="147.41" height="321.94" transform="translate(647.62 -101.22) rotate(91.62)"/><path class="cls-26" d="M238.88,184.11a23.35,23.35,0,0,1-.19,2.52A27.71,27.71,0,0,1,213.48,211a26.32,26.32,0,0,1-3.09.09,27.25,27.25,0,0,1-5.3-.67l.94-33.1,32.39.92A27.4,27.4,0,0,1,238.88,184.11Z"/><path class="cls-26" d="M235.16,335.4c0-.85,0-1.69,0-2.52a27.73,27.73,0,0,0-23.8-25.73,24,24,0,0,0-3.08-.26,26.89,26.89,0,0,0-5.33.36l-.93,33.1,32.39.92A27,27,0,0,0,235.16,335.4Z"/><path class="cls-26" d="M506.12,343.76q0-1.27.18-2.52a27.72,27.72,0,0,1,25.13-24.43,28.56,28.56,0,0,1,3.08-.1,28,28,0,0,1,5.31.65l-.82,33.1-32.4-.8A27.4,27.4,0,0,1,506.12,343.76Z"/><path class="cls-26" d="M510.88,191.82c0,.85,0,1.69.05,2.53a27.73,27.73,0,0,0,23.8,25.73,25.76,25.76,0,0,0,3.07.26,27.56,27.56,0,0,0,5.33-.36l.94-33.11L511.68,186A27.5,27.5,0,0,0,510.88,191.82Z"/><ellipse class="cls-26" cx="373.01" cy="264.17" rx="52.35" ry="52.41"/><path class="cls-27" d="M368.37,302.45l.19-6.7a39.92,39.92,0,0,1-22.28-10.65l6.92-7.8q7.51,6.92,15.65,8.44l.5-17.82q-10.29-2.78-15-6.95t-4.47-12.12A16.79,16.79,0,0,1,355.79,236q5.7-4.89,14.61-5.1l.13-4.59,5.87.16-.13,4.69a38.19,38.19,0,0,1,18.88,7.43l-6.2,8.28a29.48,29.48,0,0,0-13-5.7l-.48,17.26h.27q10.49,2.78,15.31,7.15t4.61,12.4a16.68,16.68,0,0,1-6.06,12.92q-5.82,4.89-15.2,5.09l-.18,6.61ZM363.58,243a6.6,6.6,0,0,0-2.48,5.07,6.49,6.49,0,0,0,1.7,4.92q1.79,1.85,6.87,3.64l.45-15.88A10.9,10.9,0,0,0,363.58,243Zm18.18,40.82a7.09,7.09,0,0,0,.84-10.41q-2-1.95-7.42-3.75l-.47,16.53A12.83,12.83,0,0,0,381.76,283.81Z"/><ellipse class="cls-26" cx="462.56" cy="266.71" rx="10.92" ry="10.93"/><ellipse class="cls-26" cx="497.81" cy="267.71" rx="10.92" ry="10.93" transform="translate(-0.28 0.52) rotate(-0.06)"/><ellipse class="cls-26" cx="248.75" cy="261.21" rx="10.93" ry="10.92" transform="translate(-12.76 509.65) rotate(-89.93)"/><ellipse class="cls-26" cx="284" cy="262.21" rx="10.92" ry="10.93"/><path class="cls-28" d="M508.43,186c3.46,44.68,6.5,80.2,10,124.88A979.36,979.36,0,0,0,229.31,352.3c-11.56-32.67-22.16-89.28-33.71-122C296,188.87,489.24,183.69,508.43,186Z"/><path class="cls-29" d="M498.32,152l17,168a781.7,781.7,0,0,0-289.81,37.7L185.75,233.59C285.12,186.62,391.2,159.07,498.32,152Z"/><path class="cls-27" d="M230.38,349.12q-17.61-56.28-35.21-112.57a859.32,859.32,0,0,1,296.09-75.4q7.89,75,15.79,150A785.23,785.23,0,0,0,230.38,349.12Z"/><path class="cls-29" d="M216.36,225a17.4,17.4,0,0,1,.47,2c1.95,10.79-4.7,22.64-15.68,28.63a29.39,29.39,0,0,1-2.64,1.3,30.7,30.7,0,0,1-4.74,1.65q-4-12.52-8-25,14.26-6.74,28.7-13A18.24,18.24,0,0,1,216.36,225Z"/><path class="cls-26" d="M251.53,343.73c-.19-.67-.42-1.32-.67-2-4-10-15-15.55-26.26-12.8a25.83,25.83,0,0,0-2.61.78,26.23,26.23,0,0,0-4.3,2q4,12.52,8,25.06,13.24-4.38,26.65-8.28A21.4,21.4,0,0,0,251.53,343.73Z"/><path class="cls-26" d="M484.67,312.6c-.1-.85-.17-1.69-.2-2.52-.57-13.07,7.34-23.68,18.84-25A18.85,18.85,0,0,1,506,285a21.56,21.56,0,0,1,4.8.63q1.77,16.94,3.55,33.86-14.25-.74-28.45-1A33,33,0,0,1,484.67,312.6Z"/><path class="cls-29" d="M467.18,160.62c.1.85.24,1.68.41,2.51,2.67,13,13.52,22.67,25.83,23.53a24.36,24.36,0,0,0,7.81-.72q-1.73-16.94-3.44-33.87-15.37,1-30.71,2.6A29,29,0,0,0,467.18,160.62Z"/><path class="cls-26" d="M400.46,243.72c4.31,27.41-12.77,51.25-37.85,55S312.78,286.8,307,262.22s10.75-51.18,37.32-57.69S396.16,216.35,400.46,243.72Z"/><path class="cls-27" d="M357.05,286.63c-.39-2-.79-4-1.18-6a38.05,38.05,0,0,1-21.66-5l4.43-8.28c5.36,3,10.5,4.46,15.47,4.34q-1.58-8-3.14-16c-6.45-.25-11.35-1.21-14.7-3s-5.52-4.92-6.49-9.58a15.34,15.34,0,0,1,2.6-12.65,21.49,21.49,0,0,1,12.07-8l-.81-4.11c1.78-.42,3.56-.82,5.34-1.22.27,1.4.54,2.81.82,4.22a33.12,33.12,0,0,1,18.49,2.66q-2,4.39-4,8.76a25.81,25.81,0,0,0-12.77-2.41l3,15.55.25,0c6.59.23,11.61,1.42,15,3.47s5.58,5.56,6.47,10.47a15.44,15.44,0,0,1-2.89,12.77c-2.79,3.61-6.9,6-12.35,7.17.39,2,.77,4,1.15,6Zm-16.26-51.82a6.06,6.06,0,0,0-1.18,5.05,5.76,5.76,0,0,0,2.51,4c1.31.82,3.6,1.39,6.86,1.74q-1.39-7.12-2.8-14.24A10.38,10.38,0,0,0,340.79,234.81Zm24.29,32.75a6.09,6.09,0,0,0,1.38-5.23,6.27,6.27,0,0,0-2.67-4.31c-1.41-.92-3.85-1.58-7.31-1.95q1.42,7.46,2.87,14.89A11.31,11.31,0,0,0,365.08,267.56Z"/><path class="cls-26" d="M444.06,238.89c.79,5.89-3,11-8.41,11.45s-10.54-3.77-11.4-9.55,2.89-11,8.4-11.58S443.26,233,444.06,238.89Z"/><path class="cls-26" d="M476.16,236.83c.71,6-3.15,11.09-8.61,11.35S457,243.89,456.27,238s3.08-11.1,8.6-11.47S475.45,230.79,476.16,236.83Z"/><path class="cls-26" d="M253.77,278.46c1.32,4.87-1.81,10.16-7,11.9s-10.47-.65-11.86-5.38,1.71-10.15,6.95-12S252.44,273.59,253.77,278.46Z"/><path class="cls-26" d="M284.47,268.91c1.24,5-2,10.32-7.24,11.85s-10.5-1.17-11.81-6.08,1.92-10.31,7.21-12S283.23,263.86,284.47,268.91Z"/><path class="cls-28" d="M243.36,318.33h0q.36,10.19.7,20.37c83.88-10.26,201-10,285.6,7.56,3.19-48.05,6.1-64.15,10.68-121.69-88.18-3.42-212.4-8.13-300.58-11.55Z"/><path class="cls-26" d="M528.11,373q13.27-76.18,26.56-152.37l-308.75-12q2.25,66,4.52,131.9Z"/><path class="cls-27" d="M253.76,215.74q1.69,59.43,3.37,118.86l265.42,29.84q11.57-68.16,23.15-136.31Z"/><path class="cls-26" d="M277.46,338.94q0-1.05-.12-2.07c-1.06-10.82-9.8-20.24-20.78-22.47A22.47,22.47,0,0,0,254,314a22.1,22.1,0,0,0-4.45,0l.92,26.59L277,343.68A21.6,21.6,0,0,0,277.46,338.94Z"/><path class="cls-26" d="M276.6,215.57a17.38,17.38,0,0,1-.09,2.05c-1,10.67-10.08,18.73-21.65,19.25a25.07,25.07,0,0,1-2.74,0,27.57,27.57,0,0,1-4.76-.67l-.9-26.6L276,210.75A20.87,20.87,0,0,1,276.6,215.57Z"/><path class="cls-26" d="M522.72,225.24c-.12.78-.21,1.55-.26,2.31-.82,12,6.85,22.16,18.22,24.18a23.79,23.79,0,0,0,2.72.32,24.33,24.33,0,0,0,4.83-.21l5.43-30.71-29.51-1.25A27.67,27.67,0,0,0,522.72,225.24Z"/><path class="cls-26" d="M501.41,364.41c.13-.78.28-1.54.46-2.29,2.82-11.89,13-20.63,24.14-20.89a20.78,20.78,0,0,1,2.61.1,20.16,20.16,0,0,1,4.38.92q-2.68,15.36-5.35,30.72l-26.56-3.11A28.83,28.83,0,0,1,501.41,364.41Z"/><path class="cls-26" d="M440.1,289.16c2.95-25.71-15.77-47.56-41.8-48.79s-47.89,17.54-48.83,41.92,17.78,46.24,41.8,48.8S437.15,314.87,440.1,289.16Z"/><path class="cls-26" d="M481.78,292.32a9,9,0,0,0-8.17-10.54,10.34,10.34,0,0,0-10.73,9.11,9.16,9.16,0,0,0,8.17,10.53C476.22,301.85,481,297.77,481.78,292.32Z"/><path class="cls-26" d="M512.31,294.63c.87-5.53-2.69-10.31-7.95-10.68a10.69,10.69,0,0,0-10.95,9.25c-.78,5.47,2.78,10.25,8,10.68S511.44,300.16,512.31,294.63Z"/><path class="cls-26" d="M296.64,277.83c0-5-4.21-9.31-9.48-9.67s-9.48,3.32-9.42,8.24,4.3,9.25,9.48,9.68A8.41,8.41,0,0,0,296.64,277.83Z"/><path class="cls-26" d="M327.19,280.14a9.83,9.83,0,0,0-9.27-9.82c-5.26-.36-9.58,3.39-9.64,8.39a10,10,0,0,0,9.26,9.81A8.72,8.72,0,0,0,327.19,280.14Z"/></g><path class="cls-7" d="M428.57,313.47A31.43,31.43,0,1,1,449,274,31.44,31.44,0,0,1,428.57,313.47Z"/><path class="cls-7" d="M428.57,313.47A31.43,31.43,0,1,1,449,274,31.44,31.44,0,0,1,428.57,313.47Z"/><ellipse class="cls-7" cx="419" cy="283.53" rx="35.88" ry="35.92"/><path class="cls-7" d="M428.57,313.47A31.43,31.43,0,1,1,449,274,31.44,31.44,0,0,1,428.57,313.47Z"/><path class="cls-8" d="M429.64,311.57a31.41,31.41,0,0,1-37.4-44.34A31.39,31.39,0,1,0,447,297.88,31.25,31.25,0,0,1,429.64,311.57Z"/><path class="cls-9" d="M409.59,253.54a31.31,31.31,0,0,0-17.28,13.58,31.39,31.39,0,0,1,52.05,35,31.41,31.41,0,0,0-34.77-48.58Z"/><g class="cls-30"><rect class="cls-31" x="196.43" y="350.2" width="156.75" height="103.38" rx="4.19"/><rect class="cls-32" x="203.91" y="358.23" width="142.28" height="87.06" rx="8.33"/><rect class="cls-33" x="209.53" y="365.18" width="49.32" height="10.1" rx="2.07"/><rect class="cls-33" x="211.76" y="408.48" width="93.69" height="7.28" rx="1.49"/><rect class="cls-34" x="211.76" y="421.44" width="93.69" height="7.28" rx="1.49"/><path class="cls-35" d="M337.59,447.09H212a9.72,9.72,0,0,1-9.71-9.71V366.46a9.72,9.72,0,0,1,9.71-9.71H337.59a9.72,9.72,0,0,1,9.72,9.71v70.92A9.72,9.72,0,0,1,337.59,447.09ZM212,359a7.5,7.5,0,0,0-7.49,7.49v70.92a7.5,7.5,0,0,0,7.49,7.49H337.59a7.5,7.5,0,0,0,7.49-7.49V366.46a7.5,7.5,0,0,0-7.49-7.49Z"/><rect class="cls-36" x="212.21" y="382.07" width="35.24" height="19.69" rx="4.33"/><path class="cls-33" d="M326.24,389.34a1,1,0,0,1-.76-.34,1,1,0,0,1,.06-1.46,14.15,14.15,0,0,0,0-21.29,1,1,0,0,1-.07-1.46,1.05,1.05,0,0,1,1.47-.07,16.23,16.23,0,0,1,0,24.35A1,1,0,0,1,326.24,389.34Z"/><path class="cls-33" d="M323.25,386.6a1,1,0,0,1-.76-.33,1,1,0,0,1,.06-1.47,10.5,10.5,0,0,0,0-15.81,1,1,0,1,1,1.4-1.53,12.56,12.56,0,0,1,0,18.87A1,1,0,0,1,323.25,386.6Z"/><path class="cls-33" d="M320.26,383.86a1,1,0,0,1-.76-.33,1,1,0,0,1,.06-1.47,6.85,6.85,0,0,0,0-10.33,1,1,0,0,1-.06-1.47,1,1,0,0,1,1.46-.06,8.91,8.91,0,0,1,0,13.39A1,1,0,0,1,320.26,383.86Z"/><path class="cls-33" d="M317.28,381.13a1.07,1.07,0,0,1-.77-.34,1,1,0,0,1,.07-1.46,3.25,3.25,0,0,0,0-4.87,1,1,0,0,1-.07-1.46,1,1,0,0,1,1.47-.06,5.29,5.29,0,0,1,0,7.92A1,1,0,0,1,317.28,381.13Z"/></g><path class="cls-37" d="M216.89,334.7l5,21.27,18.22,2.5s10.72-3.75,15,2c0,0,5.18,7.15-15,4.29l-25-2.08a5.81,5.81,0,0,1-5.32-5.49l-1-19.94Z"/><path class="cls-38" d="M201.84,282.64c0,10.56-7.14,18.12-15.94,18.12s-16-7.56-16-18.12,7.14-19.13,16-19.13S201.84,272.07,201.84,282.64Z"/><path class="cls-39" d="M196.92,291.91a5.56,5.56,0,0,1-1.19,2.45,2.76,2.76,0,0,1-2.52.73,2.79,2.79,0,0,1-2-1.73Z"/><path class="cls-40" d="M199.46,277.88c-2.15-.11-4,1.9-4.15,4.5l-3.78.9a4.69,4.69,0,0,0-9.13.63L176,281.7c-2.82-1.21-4.82-.1-5.75,1.35a3.93,3.93,0,0,0,0,4l1.22-.66a2.62,2.62,0,0,1,0-2.6c.82-1.28,2.29-1.57,4.08-.81l6.89,2.37a4.72,4.72,0,0,0,9.37-.48,1.77,1.77,0,0,0,0-.23l3.7-.88a4.09,4.09,0,0,0,3.54,3.53c2.15.11,4-1.91,4.16-4.51S201.62,278,199.46,277.88ZM186.86,288a3.32,3.32,0,1,1,3.49-3.15A3.33,3.33,0,0,1,186.86,288Zm12.18-2c-1.38-.07-2.43-1.62-2.34-3.45s1.3-3.26,2.69-3.18,2.44,1.62,2.34,3.45S200.43,286,199,285.91Z"/><path class="cls-41" d="M198.27,272.19s-3.66,9.29-22.15,8.48c0,0-2.6,4.65-5.9,5.36,0,0-1.34,10.72-11.08,4.65,0,0-15.63-11.35,7.68-19.12C166.82,271.56,185.67,252.8,198.27,272.19Z"/><ellipse class="cls-36" cx="182.64" cy="269.72" rx="25.79" ry="8.48" transform="translate(-46.3 38) rotate(-10.55)"/><path class="cls-11" d="M167.27,272.79s-2.77-15.72,12.87-18.49c0,0,13.31-3.49,18.22,12.41C198.36,266.71,188,276.63,167.27,272.79Z"/><path class="cls-42" d="M179.51,299.12l-.09,5.8s6.07,5,13-.66l-.53-4.88S186.57,302.15,179.51,299.12Z"/><polygon class="cls-38" points="204.08 484.12 206.46 499.92 213.02 499.62 212.72 483.23 204.08 484.12"/><polygon class="cls-38" points="173.01 485.84 173.09 501.7 179.34 501.11 181.39 485.84 173.01 485.84"/><polygon class="cls-43" points="178.58 373.6 203.58 484.75 214.13 484.6 208.55 373.55 178.58 373.6"/><polygon class="cls-44" points="165.63 372.96 200.5 373.55 183.25 485.84 171.14 485.84 165.63 372.96"/><path class="cls-40" d="M165,502l22.65.6A11.39,11.39,0,0,0,165,502Z"/><path class="cls-40" d="M205.36,502.43c.39-1.46,2.37-8.24,8.15-11.21,6.35-3.27,14.71-.61,20.18,6.94Z"/><path class="cls-39" d="M176.58,305.6l3.64,91.57s-10.18,2.14-18.22-3l3.93-82.37S167.74,309.43,176.58,305.6Z"/><path class="cls-7" d="M178.93,374.7l.09-11.59-2.46-57.41,2.87-1.44a9.4,9.4,0,0,0,12.77-.78l4.67,2.35,1.56,67.87Z"/><path class="cls-39" d="M196.24,305.43l5.5,3a20.92,20.92,0,0,1,9.5,8.5c2.28,3.83,4.7,10.93,5.34,18l-8.84,3,1.79,55.48s-6.26,3.22-10.54,2Z"/><rect class="cls-26" x="226.19" y="345.06" width="48.88" height="23.67" transform="translate(-106.35 106.39) rotate(-19.86)"/><rect class="cls-27" x="240" y="333.67" width="21.25" height="46.46" transform="translate(0.11 713.88) rotate(-109.86)"/><path class="cls-26" d="M272.86,360.55a3.57,3.57,0,0,1-.1-.35,4,4,0,0,1,2.1-4.59,3,3,0,0,1,.41-.18,3.83,3.83,0,0,1,.74-.19l1.63,4.49-4.4,1.59A4.24,4.24,0,0,1,272.86,360.55Z"/><path class="cls-26" d="M265.38,340.06a2,2,0,0,0,.14.34,4,4,0,0,0,4.55,2.19,2.35,2.35,0,0,0,.43-.13,4,4,0,0,0,.69-.33l-1.62-4.49-4.4,1.59A4,4,0,0,0,265.38,340.06Z"/><path class="cls-26" d="M228.55,353.26c0,.12.08.23.11.35a4,4,0,0,1-2.08,4.6,3,3,0,0,1-.41.18,4.13,4.13,0,0,1-.75.19l-1.64-4.48,4.4-1.6A3.82,3.82,0,0,1,228.55,353.26Z"/><path class="cls-26" d="M235.93,373.89a1.92,1.92,0,0,0-.14-.33,4,4,0,0,0-4.55-2.2l-.43.13a4,4,0,0,0-.69.33l1.62,4.49,4.4-1.59A4.21,4.21,0,0,0,235.93,373.89Z"/><circle class="cls-26" cx="250.63" cy="356.9" r="7.55" transform="translate(-97.26 93.91) rotate(-17.83)"/><path class="cls-26" d="M237,361.83a1.57,1.57,0,1,1,3-1.07,1.57,1.57,0,0,1-3,1.07Z"/><path class="cls-26" d="M232.2,363.56a1.57,1.57,0,1,1,3-1.07,1.57,1.57,0,0,1-3,1.07Z"/><path class="cls-26" d="M266,351.27a1.57,1.57,0,1,1,2,.94A1.58,1.58,0,0,1,266,351.27Z"/><path class="cls-26" d="M261.2,353a1.58,1.58,0,1,1,2,.94A1.57,1.57,0,0,1,261.2,353Z"/><path class="cls-26" d="M208.56,314.14l27.78-1.61a129,129,0,0,0,4.15,48l-20.72,5.67A142.77,142.77,0,0,1,208.56,314.14Z"/><path class="cls-27" d="M239.1,359.68l-18.77,5A141.7,141.7,0,0,1,210,315.37l24.8-1.54A129.72,129.72,0,0,0,239.1,359.68Z"/><path class="cls-26" d="M218.58,361.11a1.91,1.91,0,0,1,.33-.06,4.7,4.7,0,0,1,4.61,2.78c.07.15.13.3.19.45a5.94,5.94,0,0,1,.24.79l-4.18,1.14q-1-2.38-1.93-4.82A3.44,3.44,0,0,1,218.58,361.11Z"/><path class="cls-26" d="M238.36,356.16a3,3,0,0,0-.32.09,3.66,3.66,0,0,0-2.3,4.24c0,.14.07.29.11.43a4.3,4.3,0,0,0,.3.73l4.18-1.15c-.42-1.47-.81-3-1.18-4.45A3.66,3.66,0,0,0,238.36,356.16Z"/><path class="cls-26" d="M234.89,317.53h-.42a3.73,3.73,0,0,1-4-3.28,3.5,3.5,0,0,1,.14-1.23l5.6-.35q-.22,2.34-.36,4.68A5.43,5.43,0,0,1,234.89,317.53Z"/><path class="cls-26" d="M209.75,319.33l.42,0a4.82,4.82,0,0,0,4.06-4.09c0-.16,0-.32,0-.48a3.75,3.75,0,0,0-.09-.82l-5.6.33c0,1.69.11,3.39.22,5.08A4.47,4.47,0,0,0,209.75,319.33Z"/><path class="cls-26" d="M223,330.91a7.67,7.67,0,0,1,8.78,6.63,7.9,7.9,0,0,1-15.63,2.35A7.61,7.61,0,0,1,223,330.91Z"/><path class="cls-26" d="M222.47,323.7a1.6,1.6,0,0,1,1.83,1.46,1.81,1.81,0,0,1-1.66,1.81,1.61,1.61,0,0,1-1.84-1.46A1.78,1.78,0,0,1,222.47,323.7Z"/><path class="cls-26" d="M222.36,318.39a1.59,1.59,0,0,1,1.81,1.5,1.89,1.89,0,0,1-1.76,1.79,1.61,1.61,0,0,1-1.83-1.5A1.87,1.87,0,0,1,222.36,318.39Z"/><path class="cls-26" d="M227.64,355.33a1.66,1.66,0,0,1,1.9,1.23,1.48,1.48,0,0,1-1,1.92,1.71,1.71,0,0,1-1.93-1.23A1.45,1.45,0,0,1,227.64,355.33Z"/><path class="cls-26" d="M226.28,350.2a1.66,1.66,0,0,1,1.9,1.28,1.51,1.51,0,0,1-1.08,1.9,1.69,1.69,0,0,1-1.92-1.27A1.49,1.49,0,0,1,226.28,350.2Z"/><path class="cls-26" d="M259,318.9q8.61,10.74,17.21,21.47a151.76,151.76,0,0,0-44.34,35.54q-8.61-10.74-17.21-21.47A151.44,151.44,0,0,1,259,318.9Z"/><path class="cls-27" d="M231.94,373.74l-15.45-19.28a151.39,151.39,0,0,1,42.16-33.79l15.45,19.27A151.42,151.42,0,0,0,231.94,373.74Z"/><path class="cls-26" d="M219,351c.09.11.17.22.25.34a5.8,5.8,0,0,1-.14,6.37c-.1.14-.21.28-.32.41a5.32,5.32,0,0,1-.64.62l-3.47-4.33q1.78-2.08,3.63-4.11A4.16,4.16,0,0,1,219,351Z"/><path class="cls-26" d="M234.92,370.74l-.27-.31a3.76,3.76,0,0,0-5.39-.19,3.15,3.15,0,0,0-.36.37,5.46,5.46,0,0,0-.54.75l3.47,4.33c1.19-1.39,2.4-2.75,3.64-4.1A4.57,4.57,0,0,0,234.92,370.74Z"/><path class="cls-26" d="M270.53,342.34c-.09-.11-.17-.23-.25-.34a3.76,3.76,0,0,1,1-5.31,3.23,3.23,0,0,1,.44-.27,4.43,4.43,0,0,1,.84-.36l3.49,4.32q-2.41,1.29-4.78,2.67A4.77,4.77,0,0,1,270.53,342.34Z"/><path class="cls-26" d="M254.67,322.42c.09.11.18.22.28.32a5.8,5.8,0,0,0,6.24,1.25,5.24,5.24,0,0,0,.48-.23,4.75,4.75,0,0,0,.74-.49q-1.74-2.16-3.47-4.33-2.43,1.29-4.8,2.66A4.57,4.57,0,0,0,254.67,322.42Z"/><path class="cls-26" d="M250.82,340a8.82,8.82,0,0,1-13.77,11,8.82,8.82,0,1,1,13.77-11Z"/><path class="cls-26" d="M257.56,335.47a1.63,1.63,0,0,1-.41,2.43,2.06,2.06,0,0,1-2.68-.42,1.64,1.64,0,0,1,.39-2.44A2.08,2.08,0,0,1,257.56,335.47Z"/><path class="cls-26" d="M262.66,332.39a1.54,1.54,0,0,1-.45,2.36,2.16,2.16,0,0,1-2.72-.48,1.55,1.55,0,0,1,.43-2.38A2.19,2.19,0,0,1,262.66,332.39Z"/><path class="cls-26" d="M229.71,358.25a2.16,2.16,0,0,1-.13,2.76,1.54,1.54,0,0,1-2.4-.08,2.18,2.18,0,0,1,.11-2.78A1.56,1.56,0,0,1,229.71,358.25Z"/><path class="cls-26" d="M233.93,354.05a2.06,2.06,0,0,1-.18,2.71,1.62,1.62,0,0,1-2.45-.13,2.09,2.09,0,0,1,.16-2.73A1.64,1.64,0,0,1,233.93,354.05Z"/><path class="cls-26" d="M238.39,302.36l26.47,16.48a104.15,104.15,0,0,0-32.1,48.31l-22.2-12.57A106.28,106.28,0,0,1,238.39,302.36Z"/><path class="cls-27" d="M232.06,365.12l-20-11.37a106,106,0,0,1,26.68-49.48L262.38,319A104.27,104.27,0,0,0,232.06,365.12Z"/><path class="cls-26" d="M212.77,349.26l.34.22a6.56,6.56,0,0,1,2.32,6.2,5.3,5.3,0,0,1-.1.55,7,7,0,0,1-.29.88l-4.48-2.53c.41-1.91.86-3.8,1.37-5.67A4.28,4.28,0,0,1,212.77,349.26Z"/><path class="cls-26" d="M233.67,361.12l-.36-.18a3.51,3.51,0,0,0-4.78,2.07,3.68,3.68,0,0,0-.18.5,5.78,5.78,0,0,0-.19.92l4.48,2.54q.83-2.67,1.8-5.28A3.94,3.94,0,0,0,233.67,361.12Z"/><path class="cls-26" d="M259.39,322.24A3.77,3.77,0,0,1,259,322c-1.93-1.42-2.33-3.73-.87-5.43a4.4,4.4,0,0,1,.37-.38,4.93,4.93,0,0,1,.78-.58l5.35,3.31q-2.17,1.88-4.23,3.84A6.32,6.32,0,0,1,259.39,322.24Z"/><path class="cls-26" d="M235.32,307.28l.41.23a6.63,6.63,0,0,0,6.94-.68,4.59,4.59,0,0,0,.41-.36,5.31,5.31,0,0,0,.58-.71l-5.34-3.33c-1.33,1.36-2.61,2.76-3.86,4.19A5.28,5.28,0,0,0,235.32,307.28Z"/><path class="cls-26" d="M238.08,326a8.6,8.6,0,0,1,2.77,12.29c-2.72,4.2-7.95,5.83-12.12,3.39A9.65,9.65,0,0,1,225.28,329C227.72,324.49,233.65,323.27,238.08,326Z"/><path class="cls-26" d="M243.27,319.34a1.63,1.63,0,0,1,.48,2.5,2.31,2.31,0,0,1-2.9.45,1.67,1.67,0,0,1-.5-2.52A2.3,2.3,0,0,1,243.27,319.34Z"/><path class="cls-26" d="M247.42,314.75a1.54,1.54,0,0,1,.41,2.46,2.5,2.5,0,0,1-3,.36,1.59,1.59,0,0,1-.44-2.49A2.5,2.5,0,0,1,247.42,314.75Z"/><path class="cls-26" d="M224.66,351.52a2.27,2.27,0,0,1,.88,2.67,1.45,1.45,0,0,1-2.12.95,2.35,2.35,0,0,1-.91-2.69A1.45,1.45,0,0,1,224.66,351.52Z"/><path class="cls-26" d="M226.94,345.78a2.16,2.16,0,0,1,.81,2.66,1.56,1.56,0,0,1-2.26.87,2.21,2.21,0,0,1-.84-2.67A1.58,1.58,0,0,1,226.94,345.78Z"/><path class="cls-38" d="M159.6,337.88l6.8,23.36s5.16,8.68,14.73,6.74l32.92-4.19s13.52,2.16,14.67,1.51c0,0,4.68-3.19.68-8.35a4.45,4.45,0,0,0-2.78-1.64l-7.41-1.25a4.4,4.4,0,0,0-2,.14l-6.69,3-31.13-1.77-6-19.78S165.16,339.18,159.6,337.88Z"/><path class="cls-45" d="M156.66,338.56S152.21,314.7,167,311c0,0,11.08-.92,10.16,26.78A26.77,26.77,0,0,1,156.66,338.56Z"/><path class="cls-38" d="M587.2,463.4,589,470s6.68-3.25,11.64.51l0-7Z"/><path class="cls-38" d="M543.55,463.68l-2.06,5.65s8.44,1.79,11.52,6.92l1.15-12.4Z"/><path class="cls-46" d="M522.91,479.14c5.22-8.1,14.48-12,22.55-9.78,7.62,2.06,11.23,8.72,11.92,10.06Z"/><path class="cls-46" d="M582,478.8a12.93,12.93,0,0,1,25.1-.46Z"/><path class="cls-47" d="M540,463.28l15.12.57,29.6-118.77s-19,4.79-37.82-4.45Z"/><path class="cls-48" d="M553.27,343.71l32,120h16.89l-8.79-122.26S577,351.47,553.27,343.71Z"/><path class="cls-49" d="M551.89,267s-18,6.27-14.91,31.45c0,0,6.84,2.3,8.57,0C545.55,298.41,542.58,275.66,551.89,267Z"/><path class="cls-50" d="M573,265.79s11.13,1.75,15.22,8.35l5.34,67.7s-23.06,12.24-47.18,1l-3.05-53s-1.1-14.46,7.09-22.83A74.46,74.46,0,0,1,573,265.79Z"/><path class="cls-51" d="M572.67,298.1s-6.45-25.31,9.18-27.87c0,0,11.52.72,11.67,26.06C593.52,296.29,583.17,300.09,572.67,298.1Z"/><path class="cls-38" d="M573.72,298.2l2.88,15.6L538,324.7a111.68,111.68,0,0,0-14.67,1.91,5.09,5.09,0,0,0-3.51,2.65c-1.06,2.08-1.57,5.46,2.32,9.46,0,0,3.2,3.46,17.42-5.91l44-8.67s8.7-2.29,5.85-14.57l-1.75-12.74A52.73,52.73,0,0,1,573.72,298.2Z"/><path class="cls-38" d="M541.27,237.94s-1.87,7.12,1.27,19.29c.09.34,5.69,6.3,5.69,6.3l6,.48s4.86-.52,10.8-8.34l3.12-12.27s-.86-11.25-15.51-12.84C552.69,230.56,546.15,228.17,541.27,237.94Z"/><path class="cls-38" d="M552.37,271l-.2,2.83s2.47,13.68,16-3.46a5.23,5.23,0,0,0,1.1-3.94c-.52-3.79-.73-12.69,1.37-17.5,0-.18.37-3.3-.63-3.74a2.52,2.52,0,0,0-2.18.19c-1.39.87-2.55,4.34-1.31,8,.17,1.25,2.69,12.53-3,15.63a5.52,5.52,0,0,1-1.51.58Z"/><path class="cls-52" d="M542.24,256.26c.21.82,3.51,5.08,4.4,2a2.23,2.23,0,0,1,1.46-1.56,6.11,6.11,0,0,1,6.39,1.1s-.36.67,6.84-5.16c0,0,3.89-5,2.17-10.21,0,0,5.89.56,7.44,3,0,0-6.26-2.11-3.52,6.71a7.52,7.52,0,0,1,.34,2.05c0,1.86.08,5.73-.19,9.21a6.66,6.66,0,0,1-1.09,3.24,11.06,11.06,0,0,1-1.47,1.79,8,8,0,0,1-4.63,2.19l-9.32,1.21a5.81,5.81,0,0,1-4.72-1.5,16,16,0,0,1-1.82-2,5.77,5.77,0,0,1-1.14-2.87Z"/><path class="cls-47" d="M571,245.3a4.81,4.81,0,0,0-3.14-1.73h-.15l-8.15,2.6a2.82,2.82,0,0,0-.07-.31,4.22,4.22,0,0,0-5.32-2.68,4.28,4.28,0,0,0-3,3.65l-3.77.34a3.42,3.42,0,0,0-.13-.62,4.26,4.26,0,1,0,.07,2.16l4-.36a.36.36,0,0,0,0,.1,4.21,4.21,0,0,0,5.32,2.68,4.27,4.27,0,0,0,2.92-3.38l8.24-2.62a3.23,3.23,0,0,1,1.93,1.12,4.59,4.59,0,0,1,.57,3.67l1.51.26A6,6,0,0,0,571,245.3Zm-27,5a2.64,2.64,0,1,1,1.79-3.34A2.68,2.68,0,0,1,544.05,250.35Zm12.19-.69a2.64,2.64,0,1,1,1.79-3.34A2.69,2.69,0,0,1,556.24,249.66Z"/><path class="cls-39" d="M525.83,240.58c5.17.2,10.54.29,16.08.21a304.74,304.74,0,0,0,36.89-2.69.45.45,0,0,0,.4-.38.49.49,0,0,0-.31-.51l-13-4c-.22-.06-.5-3.91-.58-4.36-.31-1.77-.54-4.24-1-6-1.19-4.16-5.18-5.34-9-3-1,.63-1.81,1.67-3.59,2.27-2.11.73-3.62.06-5.67-.25-3.92-.59-5.67,1.86-5.54,5.58l.25,7.58-15,5.06C525.53,240.27,525.62,240.59,525.83,240.58Z"/><path class="cls-38" d="M548,259.65a5,5,0,0,0,1.71,1.72,2.47,2.47,0,0,0,2.33-.12,2.43,2.43,0,0,0,1.16-2Z"/><path class="cls-53" d="M355,146.19l-186-1A27,27,0,0,1,210.8,112.1c5-27,20.45-50.65,59.42-49.68,19.85.5,37.52,15.88,45.78,36,16.24-7.79,35-1.93,42.86,11.69C365.08,121,363.6,135.48,355,146.19Z"/></g></g></svg>