<svg xmlns="http://www.w3.org/2000/svg" viewBox="0 0 510.83 670.83"><defs><style>.cls-1{opacity:0.1;}.cls-2{fill:#f7abb5;}.cls-3{fill:#f9c0c7;}.cls-4{fill:#e58a97;}.cls-5{fill:#282828;}.cls-6{fill:#fec827;}.cls-7{fill:#f99f00;}</style></defs><title>Savings</title><g id="Layer_2" data-name="Layer 2"><g id="CONTENT"><ellipse class="cls-1" cx="196.75" cy="646.84" rx="150" ry="23.98"/><path class="cls-2" d="M70.66,576h66a0,0,0,0,1,0,0v57.89a12,12,0,0,1-12,12h-42a12,12,0,0,1-12-12V576A0,0,0,0,1,70.66,576Z"/><path class="cls-2" d="M258.63,576h66a0,0,0,0,1,0,0v57.89a12,12,0,0,1-12,12h-42a12,12,0,0,1-12-12V576A0,0,0,0,1,258.63,576Z"/><path class="cls-3" d="M395.29,441.3A197.6,197.6,0,1,1,142,251.6c1.67-.49,3.34-.95,5-1.4a196.44,196.44,0,0,1,40.26-6.28c3.43-.17,6.89-.27,10.36-.27s6.94.1,10.37.27a197.13,197.13,0,0,1,40.26,6.28c1.69.45,3.36.91,5,1.4a197.7,197.7,0,0,1,142,189.7Z"/><circle class="cls-2" cx="197.64" cy="438.63" r="75.01" transform="translate(-252.27 268.23) rotate(-45)"/><ellipse class="cls-4" cx="176" cy="414.81" rx="13.58" ry="16.47"/><ellipse class="cls-4" cx="219.29" cy="414.81" rx="13.58" ry="16.47"/><circle class="cls-5" cx="167.37" cy="321.78" r="10.24"/><circle class="cls-5" cx="227.91" cy="321.78" r="10.24"/><path class="cls-2" d="M156.61,263.21a3.9,3.9,0,0,1-2.14,1.34,182.47,182.47,0,0,0-112,81.76,4,4,0,0,1-7.3-1.15c-12.93-52.74-1-101.59,25.84-115.85,23-12.25,61.51-.95,95.13,28.31A4,4,0,0,1,156.61,263.21Z"/><path class="cls-4" d="M156.61,263.21a3.9,3.9,0,0,1-2.14,1.34,181.86,181.86,0,0,0-98.1,62.14C52.09,305.05,41.53,241,72.16,228.74c10-4.31,37.63-5.23,84,34.11Z"/><path class="cls-2" d="M238.67,263.21a4,4,0,0,0,2.15,1.34,182.48,182.48,0,0,1,112,81.76,4,4,0,0,0,7.31-1.15c12.93-52.74.95-101.59-25.84-115.85-23-12.25-61.51-.95-95.14,28.31A4,4,0,0,0,238.67,263.21Z"/><path class="cls-4" d="M238.67,263.21a4,4,0,0,0,2.15,1.34,181.83,181.83,0,0,1,98.09,62.14c4.28-21.64,14.85-85.68-15.78-97.95-10-4.31-37.63-5.23-84,34.11Z"/><circle class="cls-6" cx="197.64" cy="166.75" r="50"/><circle class="cls-7" cx="197.64" cy="166.75" r="42.31" transform="translate(-60.02 188.6) rotate(-45)"/><path class="cls-6" d="M214.1,179.44c0,8.85-5.08,14-12.85,15.21v4.19h-7.2v-4.12c-9.4-1.22-12.86-7.52-12.86-16.14v-4h10v3.16c-.15,3.72.6,6.71,2.82,8.13a6.23,6.23,0,0,0,3.49.91,7.28,7.28,0,0,0,3.71-.85c1.7-1,2.53-2.84,2.53-5.46a7.7,7.7,0,0,0-2.53-5.91,13.17,13.17,0,0,0-1.49-1.19c-1.8-1.41-3.76-2.68-5.71-4-3.73-2.45-7.46-4.92-10.14-8.45a14.94,14.94,0,0,1-2.58-8.25c0-8.25,4.17-13.14,12.72-14v-4.07h7.2v4.23c11.77,2,11.43,12.52,11.49,17.33h-9.68c.05-3.16-.12-6.29-1.81-8.06a5.3,5.3,0,0,0-4.07-1.48,7.23,7.23,0,0,0-3.13.58c-1.52.7-2.39,2.1-2.39,4.44a6.57,6.57,0,0,0,2.39,5.31,26.06,26.06,0,0,0,3.34,2.36c1.06.67,2.42,1.54,3.86,2.5a67.46,67.46,0,0,1,8.34,6.32C213,171.55,214.1,174.78,214.1,179.44Z"/><circle class="cls-6" cx="132.51" cy="78.81" r="37.94"/><circle class="cls-7" cx="132.51" cy="78.81" r="32.1"/><path class="cls-6" d="M145,88.44c0,6.71-3.86,10.63-9.76,11.55v3.17h-5.46V100c-7.13-.92-9.76-5.7-9.76-12.24v-3h7.62v2.39c-.12,2.82.45,5.09,2.14,6.17a4.82,4.82,0,0,0,2.65.69,5.44,5.44,0,0,0,2.81-.65c1.3-.75,1.92-2.15,1.92-4.14a5.81,5.81,0,0,0-1.92-4.48,8.8,8.8,0,0,0-1.13-.91c-1.36-1.07-2.85-2-4.33-3-2.83-1.86-5.66-3.74-7.69-6.41a11.35,11.35,0,0,1-2-6.26c0-6.26,3.16-10,9.65-10.66V54.46h5.46v3.21c8.94,1.49,8.67,9.5,8.72,13.14h-7.34c0-2.39-.1-4.77-1.38-6.11a4,4,0,0,0-3.08-1.12,5.53,5.53,0,0,0-2.38.44c-1.15.53-1.81,1.59-1.81,3.36a5,5,0,0,0,1.81,4,19.78,19.78,0,0,0,2.54,1.8c.8.51,1.83,1.17,2.92,1.9a51.37,51.37,0,0,1,6.33,4.79A10.66,10.66,0,0,1,145,88.44Z"/><circle class="cls-6" cx="219.29" cy="32.1" r="32.1" transform="translate(141.15 239.5) rotate(-77.68)"/><circle class="cls-7" cx="219.29" cy="32.1" r="27.17"/><path class="cls-6" d="M229.86,40.25c0,5.68-3.27,9-8.26,9.77v2.69H217V50.06c-6-.78-8.26-4.83-8.26-10.36V37.17h6.45v2c-.1,2.38.38,4.3,1.81,5.22a4.09,4.09,0,0,0,2.24.58,4.63,4.63,0,0,0,2.38-.55,3.69,3.69,0,0,0,1.63-3.5,4.93,4.93,0,0,0-1.63-3.8,8.32,8.32,0,0,0-.95-.76c-1.16-.91-2.42-1.72-3.67-2.55a25.12,25.12,0,0,1-6.51-5.42,9.57,9.57,0,0,1-1.66-5.3c0-5.29,2.68-8.43,8.17-9V11.49h4.62v2.72c7.56,1.27,7.34,8,7.38,11.13h-6.21c0-2-.08-4-1.17-5.18a3.4,3.4,0,0,0-2.61-.95,4.72,4.72,0,0,0-2,.37,2.83,2.83,0,0,0-1.54,2.85A4.21,4.21,0,0,0,217,25.84a15.61,15.61,0,0,0,2.15,1.52c.68.43,1.55,1,2.47,1.61A42.53,42.53,0,0,1,227,33,9,9,0,0,1,229.86,40.25Z"/><path class="cls-4" d="M208.75,245.31v21.84a11.11,11.11,0,1,1-22.21,0V245.31q5.52-.28,11.1-.29T208.75,245.31Z"/><ellipse class="cls-1" cx="438.17" cy="648.97" rx="72.66" ry="12.63"/><path class="cls-6" d="M492.44,638.92c0,9.8-22.38,17.74-50,17.74s-50-7.94-50-17.74a7.52,7.52,0,0,1,1.68-4.56,18.08,18.08,0,0,1,5.44-4.57,37.39,37.39,0,0,1,4.48-2.24h0c9.17-3.9,23-6.38,38.39-6.38s29.24,2.48,38.41,6.39a37.23,37.23,0,0,1,4.47,2.23,18.25,18.25,0,0,1,5.45,4.57A7.57,7.57,0,0,1,492.44,638.92Z"/><path class="cls-7" d="M492.44,629.79v9.13c0,9.8-22.38,17.74-50,17.74s-50-7.94-50-17.74v-9.13Z"/><ellipse class="cls-6" cx="442.44" cy="629.79" rx="50" ry="17.75"/><ellipse class="cls-7" cx="442.44" cy="628.79" rx="38.92" ry="13.82"/><path class="cls-6" d="M454.68,630.36c.69,3.85-3,6.31-9.31,6.9l.09,2.15h-6.07l.08-2.12c-7.63-.6-9.91-3.58-9.25-7.28l.28-1.58h7.27l-.08,1.26a2.88,2.88,0,0,0,1.94,3.45,7.81,7.81,0,0,0,2.71.41,9.06,9.06,0,0,0,2.87-.38,2.24,2.24,0,0,0,1.81-2.36c-.07-1-.77-1.77-2-2.38a10.19,10.19,0,0,0-1.09-.47c-1.29-.53-2.68-1-4.05-1.48a27.44,27.44,0,0,1-6.68-3,2.9,2.9,0,0,1-1.27-2.64c.43-2.42,3.18-3.77,8.33-4l0-1.06h4.23l0,1.1c7.14.53,7.43,3.56,7.71,5H446a2.43,2.43,0,0,0-1.28-2.45,6,6,0,0,0-2.55-.43,9.28,9.28,0,0,0-2,.17c-.95.2-1.53.62-1.57,1.31s.53,1.25,1.46,1.66a22.8,22.8,0,0,0,2.19.76c.71.22,1.62.51,2.6.84a60.72,60.72,0,0,1,5.9,2.2C453.36,627.26,454.35,628.49,454.68,630.36Z"/><path class="cls-6" d="M498.14,625.74c0,9.8-22.38,17.74-50,17.74s-50-7.94-50-17.74a7.52,7.52,0,0,1,1.68-4.56,18.08,18.08,0,0,1,5.44-4.57,37.39,37.39,0,0,1,4.48-2.24h0c9.17-3.9,23-6.38,38.39-6.38s29.24,2.48,38.41,6.39a37.23,37.23,0,0,1,4.47,2.23,18.25,18.25,0,0,1,5.45,4.57A7.57,7.57,0,0,1,498.14,625.74Z"/><path class="cls-7" d="M498.14,616.61v9.13c0,9.8-22.38,17.74-50,17.74s-50-7.94-50-17.74v-9.13Z"/><ellipse class="cls-6" cx="448.14" cy="616.61" rx="50" ry="17.75"/><ellipse class="cls-7" cx="448.14" cy="615.61" rx="38.92" ry="13.82"/><path class="cls-6" d="M460.38,617.18c.69,3.85-3,6.31-9.3,6.9l.08,2.15h-6.07l.08-2.12c-7.63-.6-9.91-3.58-9.25-7.28l.28-1.58h7.28l-.09,1.26a2.88,2.88,0,0,0,1.94,3.45,7.81,7.81,0,0,0,2.71.41,9.17,9.17,0,0,0,2.88-.38,2.24,2.24,0,0,0,1.8-2.36c-.07-1-.77-1.77-2-2.38a9.38,9.38,0,0,0-1.09-.47c-1.29-.53-2.68-1-4.05-1.48a27.79,27.79,0,0,1-6.68-3,2.87,2.87,0,0,1-1.26-2.64c.42-2.42,3.17-3.77,8.32-4l0-1.06h4.23l0,1.1c7.14.53,7.43,3.56,7.71,5h-6.33a2.43,2.43,0,0,0-1.28-2.45,6,6,0,0,0-2.55-.43,9.12,9.12,0,0,0-1.95.17c-1,.2-1.54.62-1.58,1.31s.53,1.25,1.46,1.66a22.13,22.13,0,0,0,2.2.76c.7.22,1.61.51,2.59.84a60.72,60.72,0,0,1,5.9,2.2C459.07,614.08,460.05,615.31,460.38,617.18Z"/><path class="cls-6" d="M485.82,612.56c0,9.8-22.38,17.74-50,17.74s-50-7.94-50-17.74A7.52,7.52,0,0,1,387.5,608a18.08,18.08,0,0,1,5.44-4.57,37.39,37.39,0,0,1,4.48-2.24h0c9.17-3.9,23-6.38,38.39-6.38s29.24,2.48,38.41,6.39a37.23,37.23,0,0,1,4.47,2.23,18.25,18.25,0,0,1,5.45,4.57A7.57,7.57,0,0,1,485.82,612.56Z"/><path class="cls-7" d="M485.82,603.43v9.13c0,9.8-22.38,17.74-50,17.74s-50-7.94-50-17.74v-9.13Z"/><ellipse class="cls-6" cx="435.82" cy="603.43" rx="50" ry="17.75"/><ellipse class="cls-7" cx="435.82" cy="602.43" rx="38.92" ry="13.82"/><path class="cls-6" d="M448.06,604c.69,3.85-3,6.31-9.31,6.9l.09,2.15h-6.08l.09-2.12c-7.63-.6-9.91-3.58-9.25-7.28l.28-1.58h7.27l-.09,1.26a2.89,2.89,0,0,0,1.95,3.45,7.77,7.77,0,0,0,2.71.41,9.06,9.06,0,0,0,2.87-.38,2.24,2.24,0,0,0,1.81-2.36c-.07-1-.77-1.77-2-2.38a10.19,10.19,0,0,0-1.09-.47c-1.3-.53-2.69-1-4.05-1.48a27.44,27.44,0,0,1-6.68-3,2.86,2.86,0,0,1-1.27-2.64c.43-2.42,3.18-3.77,8.32-4l0-1.06h4.23l0,1.1c7.14.53,7.42,3.56,7.71,5h-6.33a2.43,2.43,0,0,0-1.28-2.45,6,6,0,0,0-2.55-.43,9.28,9.28,0,0,0-2,.17c-.95.2-1.53.62-1.58,1.31s.54,1.25,1.46,1.66a23.07,23.07,0,0,0,2.2.76c.71.22,1.62.51,2.59.84a61,61,0,0,1,5.91,2.2C446.74,600.9,447.72,602.13,448.06,604Z"/><path class="cls-6" d="M498.14,596.69c0,9.8-22.38,17.74-50,17.74s-50-7.94-50-17.74a7.52,7.52,0,0,1,1.68-4.56,18.08,18.08,0,0,1,5.44-4.57,37.39,37.39,0,0,1,4.48-2.24h0c9.17-3.9,23-6.38,38.39-6.38s29.24,2.48,38.41,6.39a37.23,37.23,0,0,1,4.47,2.23,18.25,18.25,0,0,1,5.45,4.57A7.57,7.57,0,0,1,498.14,596.69Z"/><path class="cls-7" d="M498.14,587.56v9.13c0,9.8-22.38,17.74-50,17.74s-50-7.94-50-17.74v-9.13Z"/><ellipse class="cls-6" cx="448.14" cy="587.56" rx="50" ry="17.75"/><ellipse class="cls-7" cx="448.14" cy="586.56" rx="38.92" ry="13.82"/><path class="cls-6" d="M460.38,588.13c.69,3.85-3,6.31-9.3,6.9l.08,2.16h-6.07l.08-2.12c-7.63-.61-9.91-3.58-9.25-7.29l.28-1.57h7.28l-.09,1.25a2.88,2.88,0,0,0,1.94,3.45,7.81,7.81,0,0,0,2.71.41,9.17,9.17,0,0,0,2.88-.38,2.24,2.24,0,0,0,1.8-2.36c-.07-1-.77-1.77-2-2.38a9.41,9.41,0,0,0-1.09-.46c-1.29-.54-2.68-1-4.05-1.49a27.41,27.41,0,0,1-6.68-3,2.86,2.86,0,0,1-1.26-2.64c.42-2.42,3.17-3.76,8.32-4l0-1.06h4.23l0,1.11c7.14.53,7.43,3.55,7.71,5h-6.33a2.44,2.44,0,0,0-1.28-2.46,6,6,0,0,0-2.55-.43,9.81,9.81,0,0,0-1.95.17c-1,.21-1.54.62-1.58,1.32s.53,1.24,1.46,1.65a22,22,0,0,0,2.2.77l2.59.83a58,58,0,0,1,5.9,2.21C459.07,585,460.05,586.26,460.38,588.13Z"/><path class="cls-6" d="M504.76,587.57c0,9.8-22.38,17.74-50,17.74s-50-7.94-50-17.74a7.52,7.52,0,0,1,1.68-4.56,18.08,18.08,0,0,1,5.44-4.57,37.39,37.39,0,0,1,4.48-2.24h0c9.17-3.9,23-6.38,38.39-6.38s29.24,2.48,38.41,6.39a37.23,37.23,0,0,1,4.47,2.23,18.25,18.25,0,0,1,5.45,4.57A7.57,7.57,0,0,1,504.76,587.57Z"/><path class="cls-7" d="M504.76,578.44v9.13c0,9.8-22.38,17.74-50,17.74s-50-7.94-50-17.74v-9.13Z"/><ellipse class="cls-6" cx="454.76" cy="578.44" rx="50" ry="17.75"/><ellipse class="cls-7" cx="454.76" cy="577.44" rx="38.92" ry="13.82"/><path class="cls-6" d="M467,579c.68,3.85-3,6.31-9.31,6.9l.08,2.16h-6.07l.08-2.12c-7.62-.6-9.9-3.58-9.24-7.29l.28-1.57h7.27l-.09,1.25a2.87,2.87,0,0,0,1.95,3.45,7.7,7.7,0,0,0,2.7.41,9.13,9.13,0,0,0,2.88-.38,2.24,2.24,0,0,0,1.81-2.36c-.07-1-.77-1.77-2-2.38a10,10,0,0,0-1.08-.46c-1.3-.54-2.69-1-4-1.49a27.32,27.32,0,0,1-6.69-3,2.86,2.86,0,0,1-1.26-2.64c.43-2.42,3.17-3.76,8.32-4l0-1.06h4.23l0,1.11c7.15.53,7.43,3.55,7.71,5h-6.32a2.45,2.45,0,0,0-1.29-2.46,5.89,5.89,0,0,0-2.54-.43,10,10,0,0,0-2,.17c-1,.21-1.53.62-1.58,1.32s.54,1.24,1.46,1.65a22,22,0,0,0,2.2.77l2.59.83a58.28,58.28,0,0,1,5.91,2.21C465.69,575.91,466.67,577.14,467,579Z"/><path class="cls-6" d="M486.18,574.39c0,9.8-22.38,17.74-50,17.74s-50-7.94-50-17.74a7.52,7.52,0,0,1,1.68-4.56,18.08,18.08,0,0,1,5.44-4.57,37.39,37.39,0,0,1,4.48-2.24h0c9.17-3.9,23-6.38,38.39-6.38s29.24,2.48,38.41,6.39a37.23,37.23,0,0,1,4.47,2.23,18.25,18.25,0,0,1,5.45,4.57A7.57,7.57,0,0,1,486.18,574.39Z"/><path class="cls-7" d="M486.18,565.26v9.13c0,9.8-22.38,17.74-50,17.74s-50-7.94-50-17.74v-9.13Z"/><ellipse class="cls-6" cx="436.18" cy="565.26" rx="50" ry="17.75"/><ellipse class="cls-7" cx="436.18" cy="564.26" rx="38.92" ry="13.82"/><path class="cls-6" d="M448.42,565.83c.69,3.85-3,6.31-9.3,6.9l.08,2.16h-6.07l.08-2.12c-7.63-.61-9.91-3.58-9.25-7.29l.28-1.57h7.28l-.09,1.25a2.88,2.88,0,0,0,1.94,3.45,7.81,7.81,0,0,0,2.71.41,9.17,9.17,0,0,0,2.88-.38,2.24,2.24,0,0,0,1.8-2.36c-.07-1-.77-1.77-2-2.38a10.22,10.22,0,0,0-1.09-.46c-1.29-.54-2.68-1-4.05-1.49a27.41,27.41,0,0,1-6.68-3,2.86,2.86,0,0,1-1.26-2.64c.42-2.42,3.17-3.76,8.32-4l0-1.06h4.23l0,1.11c7.14.53,7.43,3.55,7.71,5H439.7a2.44,2.44,0,0,0-1.28-2.46,6,6,0,0,0-2.55-.43,9.81,9.81,0,0,0-1.95.17c-1,.21-1.54.62-1.58,1.32s.53,1.24,1.46,1.65a22,22,0,0,0,2.2.77l2.59.83a58,58,0,0,1,5.9,2.21C447.1,562.73,448.09,564,448.42,565.83Z"/><circle class="cls-6" cx="409.22" cy="606.65" r="50" transform="translate(-201.3 203.23) rotate(-22.54)"/><circle class="cls-7" cx="409.22" cy="606.65" r="42.31" transform="translate(-259.44 309.37) rotate(-32.03)"/><path class="cls-6" d="M422.28,622.82c-2.06,8.6-8.2,12.44-16,11.81l-1,4.07-7-1.67,1-4c-8.86-3.37-10.76-10.31-8.76-18.69l.92-3.84,9.77,2.34-.74,3.07c-1,3.58-1,6.66.85,8.56a6.33,6.33,0,0,0,3.19,1.69,7.2,7.2,0,0,0,3.8,0c1.89-.56,3.13-2.18,3.74-4.72a7.69,7.69,0,0,0-1.09-6.33,13.08,13.08,0,0,0-1.17-1.51c-1.42-1.79-3-3.48-4.64-5.18-3-3.25-6.1-6.52-7.89-10.58a14.88,14.88,0,0,1-.59-8.62c1.91-8,7.11-11.81,15.63-10.7l.95-4,7,1.68-1,4.11c11,4.66,8.2,14.84,7.15,19.53l-9.42-2.25c.78-3.07,1.34-6.15.11-8.27a5.31,5.31,0,0,0-3.61-2.38,7.31,7.31,0,0,0-3.18-.16c-1.64.33-2.82,1.49-3.36,3.76a6.59,6.59,0,0,0,1.09,5.72,26.34,26.34,0,0,0,2.71,3.08c.87.89,2,2.06,3.16,3.33a65.61,65.61,0,0,1,6.64,8.08C423.07,614.9,423.36,618.29,422.28,622.82Z"/></g></g></svg>